<svg width="200" height="200" viewBox="0 0 200 200" fill="none" xmlns="http://www.w3.org/2000/svg">
<path d="M99.9324 111.019C75.5567 110.224 69.7108 89.354 68.4594 82.6162C66.1128 82.0725 64.022 80.7444 62.5324 78.8513C60.8319 76.5081 60.0431 73.6258 60.3135 70.7432C60.1203 69.1901 60.2553 67.6137 60.7097 66.116C61.1641 64.6183 61.9277 63.2326 62.9513 62.0486C63.5291 61.4563 64.1934 60.9551 64.9216 60.5622C60.3911 53.2478 58.1598 44.7423 58.5162 36.1459C61.3378 15.9838 77.5865 14.0216 82.6757 13.9081C85.0179 11.1838 87.9458 9.02456 91.2405 7.59188C97.4121 5.10248 104.233 4.72242 110.643 6.5108C123.243 9.79999 131.646 16.1081 135.632 25.2622C141.308 38.273 136.33 53.2486 133.47 59.973C134.561 60.3273 135.566 60.9044 136.422 61.6676C137.586 62.8498 138.464 64.2836 138.987 65.8585C139.509 67.4334 139.664 69.1074 139.438 70.7513C139.711 73.6337 138.923 76.5166 137.222 78.8595C135.73 80.752 133.639 82.0799 131.292 82.6243C130.041 89.354 124.208 110.224 99.9324 111.019ZM69.4378 64.8838C68.4793 64.8391 67.5416 65.173 66.827 65.8135C66.3323 66.5064 65.9799 67.2905 65.7902 68.1204C65.6005 68.9503 65.5771 69.8096 65.7216 70.6486C65.7329 70.829 65.7266 71.01 65.7027 71.1892C65.5558 72.7405 65.9564 74.2942 66.8351 75.5811C67.3832 76.1933 68.048 76.6899 68.7906 77.0417C69.5332 77.3935 70.3386 77.5934 71.1594 77.6297C71.7774 77.7028 72.3513 77.9868 72.7841 78.4339C73.2169 78.881 73.4822 79.4638 73.5351 80.0838C73.6243 81.0892 76.0216 104.832 99.9378 105.616C123.722 104.832 126.13 81.0892 126.219 80.0784C126.273 79.4593 126.539 78.8778 126.972 78.4318C127.404 77.9858 127.977 77.7026 128.595 77.6297C129.416 77.5937 130.221 77.3939 130.964 77.0421C131.706 76.6903 132.371 76.1935 132.919 75.5811C133.801 74.2879 134.202 72.7259 134.051 71.1676C134.029 70.9938 134.022 70.8182 134.032 70.6432C134.179 69.7767 134.146 68.8895 133.936 68.0361C133.726 67.1827 133.344 66.3813 132.814 65.6811C131.969 65.0593 130.919 64.7847 129.878 64.9135C129.378 65.0022 128.863 64.9482 128.392 64.7576C127.921 64.5671 127.514 64.2477 127.216 63.836C126.919 63.4244 126.743 62.9372 126.709 62.4303C126.676 61.9235 126.786 61.4174 127.027 60.9703C127.127 60.7811 137.027 41.9919 130.665 27.3892C127.37 19.8432 120.178 14.5757 109.284 11.7324C104.047 10.2506 98.4688 10.5356 93.4108 12.5432C90.5333 13.783 88.0251 15.7456 86.1297 18.2405C85.8568 18.6117 85.4928 18.9062 85.0729 19.0955C84.6529 19.2849 84.1912 19.3628 83.7324 19.3216C83.0324 19.2649 66.4838 18.1946 63.8892 36.6946C63.8892 36.6946 63.1405 51.4108 71.6648 60.3297C72.0363 60.7181 72.2836 61.2083 72.375 61.7379C72.4665 62.2674 72.398 62.8122 72.1784 63.3027C71.9759 63.8057 71.619 64.2315 71.159 64.5186C70.699 64.8056 70.1597 64.9392 69.6189 64.9L69.4378 64.8838Z" fill="#419EE0"/>
<path d="M129.408 64.9486C128.711 64.9492 128.04 64.6801 127.536 64.1976C127.032 63.715 126.735 63.0564 126.705 62.3594C126.673 61.6594 125.835 45.3324 113.646 43.7621C108.071 44.4702 102.41 44.0288 97.0116 42.4651C91.6136 40.9014 86.593 38.2486 82.2595 34.6702C78.8135 37.2621 70.873 45.1405 72.4 61.9432C72.4202 62.631 72.1773 63.3005 71.7208 63.8154C71.2644 64.3303 70.6288 64.6516 69.9435 64.714C69.2583 64.7764 68.5751 64.5751 68.0332 64.1512C67.4912 63.7272 67.1314 63.1125 67.027 62.4324C64.7865 37.7811 80.6162 29.2243 81.2892 28.873C81.7902 28.6115 82.3605 28.5137 82.9199 28.5932C83.4794 28.6727 83.9998 28.9255 84.4081 29.3162C88.2604 32.8054 92.8207 35.4214 97.7773 36.9855C102.734 38.5495 107.97 39.0246 113.127 38.3784C113.375 38.3383 113.626 38.3292 113.876 38.3513C127.616 39.7811 131.814 54.5432 132.111 62.1351C132.139 62.8502 131.882 63.5472 131.396 64.0731C130.911 64.5991 130.237 64.911 129.522 64.9405L129.408 64.9486Z" fill="#419EE0"/>
<path d="M175.916 194.595H24.0838C23.367 194.595 22.6796 194.31 22.1727 193.803C21.6659 193.296 21.3811 192.609 21.3811 191.892V161.762C21.4004 152.239 25.1954 143.113 31.9339 136.384C38.6723 129.655 47.8042 125.873 57.327 125.868H62.5162C63.233 125.868 63.9205 126.152 64.4273 126.659C64.9342 127.166 65.2189 127.854 65.2189 128.57C65.2189 129.287 64.9342 129.975 64.4273 130.481C63.9205 130.988 63.233 131.273 62.5162 131.273H57.327C49.2374 131.277 41.4795 134.489 35.7545 140.205C30.0294 145.92 26.8044 153.673 26.7865 161.762V189.189H173.214V161.762C173.204 153.679 169.989 145.929 164.273 140.213C158.557 134.498 150.808 131.282 142.724 131.273H137.162C136.445 131.273 135.758 130.988 135.251 130.481C134.744 129.975 134.459 129.287 134.459 128.57C134.459 127.854 134.744 127.166 135.251 126.659C135.758 126.152 136.445 125.868 137.162 125.868H142.724C152.24 125.881 161.362 129.667 168.091 136.396C174.819 143.125 178.605 152.247 178.619 161.762V191.892C178.619 192.609 178.334 193.296 177.827 193.803C177.32 194.31 176.633 194.595 175.916 194.595Z" fill="#419EE0"/>
<path d="M109.032 194.595C108.643 194.595 108.259 194.511 107.905 194.349C107.552 194.186 107.237 193.95 106.984 193.655C106.73 193.36 106.543 193.014 106.435 192.64C106.327 192.266 106.301 191.874 106.359 191.489L117.297 119.103C117.355 118.72 117.495 118.354 117.706 118.029C117.918 117.705 118.197 117.43 118.524 117.223C118.852 117.016 119.22 116.882 119.604 116.829C119.987 116.777 120.378 116.807 120.749 116.919L139.624 122.608C140 122.721 140.347 122.915 140.64 123.176C140.934 123.437 141.167 123.759 141.323 124.119C141.479 124.479 141.555 124.869 141.546 125.262C141.536 125.654 141.441 126.04 141.268 126.392L133.765 141.446L138.116 146.33C138.502 146.766 138.736 147.314 138.785 147.894C138.834 148.474 138.694 149.055 138.386 149.549L111.33 193.314C111.088 193.705 110.749 194.028 110.347 194.252C109.945 194.477 109.493 194.594 109.032 194.595ZM122.178 122.995L113.678 179.246L132.741 148.435L128.516 143.692C128.157 143.289 127.926 142.787 127.855 142.252C127.783 141.717 127.873 141.173 128.114 140.689L135 126.868L122.178 122.995Z" fill="#419EE0"/>
<path d="M90.6568 194.595C90.196 194.595 89.7428 194.477 89.3402 194.253C88.9377 194.029 88.5991 193.705 88.3568 193.313L61.2919 149.557C60.9843 149.063 60.8445 148.482 60.8932 147.902C60.9419 147.323 61.1765 146.774 61.5622 146.338L65.9135 141.454L58.4108 126.4C58.237 126.048 58.1421 125.662 58.1325 125.27C58.1229 124.877 58.199 124.487 58.3554 124.127C58.5118 123.767 58.7447 123.445 59.0381 123.184C59.3315 122.923 59.6781 122.73 60.054 122.616L78.9297 116.927C79.3004 116.816 79.6907 116.786 80.0741 116.838C80.4575 116.891 80.8251 117.025 81.1521 117.232C81.4791 117.439 81.7578 117.714 81.9693 118.038C82.1809 118.362 82.3204 118.728 82.3784 119.111L93.3216 191.497C93.3782 191.881 93.3517 192.272 93.2438 192.644C93.136 193.016 92.9494 193.361 92.6966 193.655C92.4439 193.948 92.1309 194.184 91.779 194.347C91.427 194.509 91.0443 194.593 90.6568 194.595ZM66.9486 148.427L86.0108 179.238L77.5108 122.995L64.6892 126.859L71.573 140.681C71.8138 141.164 71.9045 141.709 71.8332 142.244C71.7619 142.779 71.5319 143.28 71.173 143.684L66.9486 148.427Z" fill="#419EE0"/>
<path d="M100.046 144.203C94.2021 144.199 88.3638 143.845 82.5622 143.143C82.2024 143.11 81.8529 143.006 81.5343 142.835C81.2157 142.665 80.9345 142.432 80.7073 142.151C80.4801 141.87 80.3115 141.547 80.2115 141.2C80.1116 140.853 80.0822 140.489 80.1252 140.13C80.1682 139.771 80.2827 139.425 80.462 139.111C80.6412 138.798 80.8815 138.523 81.1686 138.304C81.4558 138.084 81.784 137.925 82.1338 137.835C82.4837 137.745 82.848 137.725 83.2054 137.778C94.2512 139.137 105.422 139.137 116.468 137.778C117.172 137.702 117.878 137.906 118.434 138.345C118.99 138.784 119.351 139.425 119.44 140.128C119.528 140.831 119.337 141.54 118.908 142.104C118.478 142.667 117.845 143.04 117.143 143.141C111.472 143.852 105.762 144.207 100.046 144.203Z" fill="#419EE0"/>
<path d="M119.976 122.208C119.555 122.207 119.14 122.107 118.765 121.917C118.39 121.727 118.064 121.452 117.814 121.114C113.797 115.684 113.07 104.922 113.003 103.714C112.961 102.998 113.206 102.296 113.682 101.761C114.159 101.225 114.828 100.901 115.543 100.859C116.257 100.826 116.955 101.073 117.488 101.548C118.022 102.023 118.348 102.688 118.397 103.4C118.562 106.243 119.562 114.392 122.157 117.9C122.453 118.302 122.633 118.777 122.675 119.275C122.718 119.772 122.622 120.272 122.398 120.718C122.174 121.164 121.831 121.539 121.407 121.802C120.983 122.065 120.494 122.206 119.995 122.208H119.976Z" fill="#419EE0"/>
<path d="M79.7135 122.208C79.2143 122.206 78.7255 122.065 78.3012 121.802C77.877 121.539 77.5339 121.164 77.31 120.718C77.0861 120.272 76.9901 119.772 77.0327 119.275C77.0753 118.777 77.2548 118.302 77.5513 117.9C80.1513 114.386 81.1486 106.241 81.3135 103.4C81.3341 103.045 81.4244 102.698 81.5792 102.378C81.734 102.058 81.9504 101.771 82.2159 101.535C82.4815 101.298 82.7909 101.117 83.1267 101C83.4625 100.883 83.818 100.833 84.1729 100.854C84.5279 100.875 84.8753 100.965 85.1953 101.12C85.5153 101.275 85.8017 101.491 86.0381 101.756C86.2745 102.022 86.4563 102.331 86.5731 102.667C86.6899 103.003 86.7395 103.359 86.7189 103.713C86.6513 104.922 85.9081 115.684 81.9081 121.113C81.6545 121.456 81.3235 121.734 80.9421 121.924C80.5607 122.114 80.1397 122.212 79.7135 122.208Z" fill="#419EE0"/>
<path d="M154.473 156.714C153.77 156.714 153.094 156.44 152.589 155.95C152.084 155.46 151.791 154.792 151.77 154.089C151.265 136.489 144.573 130.951 144.508 130.897C143.95 130.454 143.588 129.809 143.5 129.102C143.412 128.394 143.605 127.68 144.038 127.114C144.468 126.552 145.102 126.182 145.803 126.085C146.504 125.988 147.215 126.171 147.781 126.595C148.138 126.865 156.584 133.424 157.176 153.932C157.196 154.648 156.931 155.343 156.44 155.864C155.948 156.385 155.27 156.69 154.554 156.711L154.473 156.714Z" fill="#419EE0"/>
<path d="M154.486 172.67C152.373 172.671 150.307 172.045 148.55 170.871C146.793 169.697 145.423 168.029 144.614 166.077C143.805 164.125 143.593 161.977 144.005 159.904C144.417 157.831 145.434 155.927 146.928 154.433C148.422 152.938 150.326 151.921 152.398 151.508C154.471 151.096 156.619 151.307 158.572 152.116C160.524 152.924 162.193 154.294 163.367 156.051C164.541 157.808 165.168 159.873 165.168 161.987C165.165 164.819 164.039 167.534 162.036 169.537C160.034 171.54 157.319 172.667 154.486 172.67ZM154.486 156.708C153.442 156.708 152.422 157.017 151.553 157.596C150.685 158.176 150.008 159 149.608 159.965C149.208 160.929 149.103 161.991 149.306 163.015C149.51 164.039 150.012 164.979 150.75 165.718C151.489 166.456 152.429 166.959 153.453 167.163C154.477 167.367 155.538 167.263 156.503 166.863C157.468 166.464 158.292 165.787 158.872 164.919C159.453 164.051 159.762 163.031 159.762 161.987C159.761 160.588 159.205 159.246 158.216 158.257C157.227 157.267 155.885 156.71 154.486 156.708Z" fill="#419EE0"/>
<path d="M43.4648 156.713C42.7801 156.715 42.1202 156.457 41.6185 155.991C41.1168 155.525 40.8108 154.886 40.7621 154.203C39.2892 133.459 50.7189 126.83 51.2054 126.557C51.8297 126.204 52.5684 126.115 53.259 126.307C53.9496 126.499 54.5355 126.958 54.8878 127.582C55.2401 128.207 55.33 128.945 55.1376 129.636C54.9453 130.327 54.4865 130.913 53.8621 131.265C53.4513 131.508 44.9432 136.759 46.1513 153.822C46.2019 154.537 45.9663 155.242 45.4964 155.784C45.0266 156.325 44.3609 156.658 43.6459 156.708L43.4648 156.713Z" fill="#419EE0"/>
<path d="M37.9973 178.354C37.5791 178.356 37.1661 178.261 36.7909 178.076C36.4157 177.891 36.0886 177.622 35.8351 177.289C34.5158 175.557 33.5439 173.585 32.973 171.484C31.7183 167.39 32.1299 162.967 34.1183 159.176C36.1067 155.384 39.5112 152.531 43.5919 151.235C45.5274 150.691 47.552 150.538 49.5474 150.785C51.5428 151.031 53.469 151.673 55.2135 152.673C58.2708 154.439 60.7162 157.097 62.2231 160.29C63.7299 163.483 64.2263 167.06 63.6459 170.543C63.5284 171.25 63.1347 171.882 62.5516 172.299C61.9684 172.716 61.2436 172.884 60.5365 172.766C59.8293 172.649 59.1979 172.255 58.781 171.672C58.3641 171.089 58.1959 170.364 58.3135 169.657C58.7102 167.27 58.3733 164.82 57.3473 162.629C56.3213 160.438 54.6546 158.61 52.5675 157.387C51.4422 156.737 50.1986 156.318 48.9095 156.154C47.6204 155.99 46.3116 156.085 45.0594 156.432C42.3513 157.338 40.1094 159.275 38.8202 161.823C37.531 164.371 37.2984 167.325 38.173 170.043C38.564 171.482 39.2304 172.831 40.1351 174.016C40.4395 174.417 40.626 174.894 40.6737 175.395C40.7214 175.896 40.6283 176.4 40.405 176.851C40.1817 177.302 39.837 177.681 39.4098 177.947C38.9825 178.212 38.4896 178.353 37.9865 178.354H37.9973Z" fill="#419EE0"/>
<path d="M61.0162 172.808C60.9108 172.808 60.8027 172.808 60.6946 172.792L57.6486 172.432C57.296 172.391 56.9551 172.28 56.6454 172.106C56.3356 171.932 56.0631 171.699 55.8434 171.42C55.6236 171.142 55.461 170.822 55.3648 170.48C55.2685 170.138 55.2405 169.781 55.2824 169.428C55.3243 169.076 55.4352 168.735 55.6089 168.425C55.7825 168.115 56.0154 167.843 56.2944 167.623C56.8578 167.179 57.5743 166.978 58.2865 167.062L61.3324 167.424C62.0165 167.506 62.6436 167.845 63.0858 168.373C63.5279 168.902 63.7516 169.579 63.7113 170.267C63.6709 170.954 63.3695 171.601 62.8686 172.073C62.3676 172.546 61.7051 172.81 61.0162 172.811V172.808Z" fill="#419EE0"/>
<path d="M37.9973 178.378C37.3627 178.379 36.7481 178.157 36.261 177.75C35.774 177.343 35.4456 176.778 35.3334 176.153C35.2213 175.529 35.3325 174.885 35.6476 174.334C35.9627 173.783 36.4615 173.361 37.0568 173.141L40.3 171.943C40.6327 171.819 40.9867 171.762 41.3416 171.774C41.6966 171.787 42.0456 171.869 42.3687 172.017C42.6918 172.164 42.9828 172.374 43.2249 172.633C43.467 172.893 43.6555 173.198 43.7797 173.531C43.904 173.864 43.9614 174.218 43.9489 174.573C43.9363 174.928 43.8539 175.277 43.7065 175.6C43.5591 175.923 43.3494 176.214 43.0895 176.456C42.8297 176.698 42.5246 176.887 42.1919 177.011L38.9487 178.211C38.6442 178.323 38.3219 178.38 37.9973 178.378Z" fill="#419EE0"/>
</svg>
