<svg width="200" height="200" viewBox="0 0 200 200" fill="none" xmlns="http://www.w3.org/2000/svg">
<path d="M118.75 40.625H109.375V31.25C109.375 30.4212 109.046 29.6263 108.46 29.0403C107.874 28.4542 107.079 28.125 106.25 28.125H93.75C92.9212 28.125 92.1263 28.4542 91.5403 29.0403C90.9542 29.6263 90.625 30.4212 90.625 31.25V40.625H81.25C80.4212 40.625 79.6263 40.9542 79.0403 41.5403C78.4542 42.1263 78.125 42.9212 78.125 43.75V56.25C78.125 57.0788 78.4542 57.8737 79.0403 58.4597C79.6263 59.0458 80.4212 59.375 81.25 59.375H90.625V68.75C90.625 69.5788 90.9542 70.3737 91.5403 70.9597C92.1263 71.5458 92.9212 71.875 93.75 71.875H106.25C107.079 71.875 107.874 71.5458 108.46 70.9597C109.046 70.3737 109.375 69.5788 109.375 68.75V59.375H118.75C119.579 59.375 120.374 59.0458 120.96 58.4597C121.546 57.8737 121.875 57.0788 121.875 56.25V43.75C121.875 42.9212 121.546 42.1263 120.96 41.5403C120.374 40.9542 119.579 40.625 118.75 40.625ZM115.625 53.125H106.25C105.421 53.125 104.626 53.4542 104.04 54.0403C103.454 54.6263 103.125 55.4212 103.125 56.25V65.625H96.875V56.25C96.875 55.4212 96.5458 54.6263 95.9597 54.0403C95.3737 53.4542 94.5788 53.125 93.75 53.125H84.375V46.875H93.75C94.5788 46.875 95.3737 46.5458 95.9597 45.9597C96.5458 45.3737 96.875 44.5788 96.875 43.75V34.375H103.125V43.75C103.125 44.5788 103.454 45.3737 104.04 45.9597C104.626 46.5458 105.421 46.875 106.25 46.875H115.625V53.125Z" fill="#419EE0"/>
<path d="M186.656 57.375C186.72 56.8252 186.751 56.2722 186.75 55.7188C186.735 52.8543 185.741 50.081 183.934 47.8587C182.126 45.6364 179.614 44.0985 176.813 43.5C173.644 42.8969 170.364 43.5198 167.638 45.2429C164.911 46.966 162.94 49.6605 162.125 52.7813L148.375 92.3438C148.171 92.4246 147.973 92.5186 147.781 92.625L120.156 108.813C115.929 111.296 112.423 114.839 109.984 119.091C107.545 123.344 106.258 128.16 106.25 133.063V162.5C105.421 162.5 104.626 162.829 104.04 163.415C103.454 164.001 103.125 164.796 103.125 165.625V190.625C103.125 191.454 103.454 192.249 104.04 192.835C104.626 193.421 105.421 193.75 106.25 193.75H150C150.829 193.75 151.624 193.421 152.21 192.835C152.796 192.249 153.125 191.454 153.125 190.625V165.625C153.125 164.796 152.796 164.001 152.21 163.415C151.624 162.829 150.829 162.5 150 162.5V155.625C150.006 154.305 150.287 153.001 150.825 151.796C151.363 150.59 152.146 149.511 153.125 148.625L174.25 129.844C176.561 127.822 178.215 125.156 179 122.188L192.562 71.4688C192.852 70.4097 192.999 69.3167 193 68.2188C192.988 66.0134 192.395 63.8502 191.281 61.9467C190.168 60.0432 188.573 58.4664 186.656 57.375ZM168.094 54.625C168.477 53.0089 169.456 51.5968 170.834 50.6701C172.213 49.7434 173.89 49.3702 175.531 49.625C176.932 49.9184 178.19 50.6835 179.094 51.7927C179.998 52.9018 180.495 54.2877 180.5 55.7188V55.7813C177.709 55.8331 175.011 56.7952 172.816 58.5213C170.622 60.2475 169.051 62.6431 168.344 65.3438L159.625 92.25C158.305 91.6239 156.89 91.2225 155.438 91.0625L168.094 54.625ZM146.875 187.5H109.375V168.75H146.875V187.5ZM186.531 69.8438L172.938 120.594C172.467 122.357 171.489 123.944 170.125 125.156L148.969 143.938C147.332 145.414 146.022 147.216 145.123 149.229C144.224 151.242 143.756 153.421 143.75 155.625V162.5H112.5V133.063C112.515 129.25 113.52 125.506 115.415 122.198C117.31 118.89 120.031 116.13 123.312 114.188L150.906 98.0313C151.618 97.6167 152.404 97.3469 153.22 97.2372C154.036 97.1275 154.866 97.1802 155.662 97.3922C156.457 97.6042 157.203 97.9713 157.857 98.4725C158.51 98.9736 159.058 99.5989 159.469 100.313C160.28 101.756 160.504 103.458 160.094 105.063C159.877 105.855 159.506 106.597 159.001 107.246C158.497 107.894 157.87 108.438 157.156 108.844L139.25 119.188C138.57 119.62 138.083 120.298 137.891 121.081C137.699 121.864 137.818 122.691 138.221 123.389C138.624 124.086 139.282 124.601 140.056 124.826C140.83 125.051 141.661 124.967 142.375 124.594L160.281 114.25C161.713 113.438 162.967 112.348 163.97 111.044C164.974 109.739 165.707 108.248 166.125 106.656C166.976 103.459 166.526 100.055 164.875 97.1875L164.688 96.9063L174.344 67.125C174.727 65.5089 175.706 64.0968 177.084 63.1701C178.463 62.2434 180.14 61.8702 181.781 62.125C183.182 62.4184 184.44 63.1835 185.344 64.2927C186.248 65.4018 186.745 66.7877 186.75 68.2188C186.761 68.7684 186.687 69.3164 186.531 69.8438Z" fill="#419EE0"/>
<path d="M93.75 162.5V133.063C93.7419 128.16 92.4549 123.344 90.016 119.091C87.5772 114.839 84.071 111.296 79.8438 108.813L52.2187 92.5938C52.0312 92.5 51.8125 92.4375 51.625 92.3438L37.9688 53C37.175 49.8337 35.2047 47.0889 32.4587 45.324C29.7127 43.5591 26.3974 42.9069 23.1875 43.5C20.3862 44.0985 17.8736 45.6364 16.0662 47.8587C14.2588 50.081 13.2652 52.8543 13.25 55.7188C13.2492 56.2722 13.2805 56.8252 13.3438 57.375C11.4274 58.4664 9.8322 60.0432 8.7186 61.9467C7.605 63.8502 7.01226 66.0134 7 68.2188C7.00607 69.3144 7.14244 70.4054 7.40625 71.4688L21 122.156C21.7768 125.137 23.4318 127.815 25.75 129.844L46.8438 148.625C47.8323 149.504 48.6243 150.582 49.1681 151.789C49.712 152.995 49.9954 154.302 50 155.625V162.5C49.1712 162.5 48.3763 162.829 47.7903 163.415C47.2042 164.001 46.875 164.796 46.875 165.625V190.625C46.875 191.454 47.2042 192.249 47.7903 192.835C48.3763 193.421 49.1712 193.75 50 193.75H93.75C94.5788 193.75 95.3737 193.421 95.9597 192.835C96.5458 192.249 96.875 191.454 96.875 190.625V165.625C96.875 164.796 96.5458 164.001 95.9597 163.415C95.3737 162.829 94.5788 162.5 93.75 162.5ZM19.5 55.7188C19.5039 54.292 19.9957 52.9095 20.8939 51.801C21.7921 50.6925 23.0426 49.9246 24.4375 49.625C26.1239 49.3802 27.8406 49.7821 29.2431 50.7499C30.6457 51.7178 31.6305 53.1802 32 54.8438L44.5625 91.0625C43.1103 91.2225 41.695 91.6239 40.375 92.25L31.7188 65.5C31.0143 62.7726 29.4407 60.3489 27.2362 58.5954C25.0316 56.8419 22.316 55.854 19.5 55.7813V55.7188ZM51 143.938L29.875 125.156C28.5033 123.937 27.5244 122.338 27.0625 120.563L13.4375 69.8438C13.3081 69.3119 13.2452 68.7661 13.25 68.2188C13.2539 66.792 13.7457 65.4095 14.6439 64.301C15.5421 63.1925 16.7926 62.4246 18.1875 62.125C19.8621 61.8737 21.5697 62.2658 22.9669 63.2224C24.3642 64.179 25.3473 65.6292 25.7188 67.2813L35.3125 96.9063L35.125 97.1875C33.4737 100.055 33.0243 103.459 33.875 106.656C34.2934 108.248 35.026 109.739 36.0296 111.044C37.0331 112.348 38.2875 113.438 39.7188 114.25L57.625 124.594C58.3392 124.967 59.1701 125.051 59.9442 124.826C60.7183 124.601 61.3757 124.086 61.779 123.389C62.1824 122.691 62.3005 121.864 62.1088 121.081C61.917 120.298 61.4302 119.62 60.75 119.188L42.8438 108.844C42.1296 108.438 41.5026 107.894 40.9985 107.246C40.4945 106.597 40.1233 105.855 39.9063 105.063C39.4957 103.458 39.7196 101.756 40.5312 100.313C40.9396 99.6005 41.4841 98.9758 42.1338 98.4743C42.7836 97.9727 43.5257 97.604 44.3179 97.3893C45.1101 97.1746 45.9369 97.118 46.7509 97.2228C47.565 97.3275 48.3505 97.5917 49.0625 98L76.6875 114.188C79.9686 116.13 82.6897 118.89 84.5849 122.198C86.4801 125.506 87.4845 129.25 87.5 133.063V162.5H56.25V155.625C56.2447 153.417 55.7744 151.236 54.8699 149.222C53.9653 147.208 52.6467 145.408 51 143.938ZM90.625 187.5H53.125V168.75H90.625V187.5Z" fill="#419EE0"/>
<path d="M144.209 16.0375C141.308 13.1314 137.863 10.8258 134.07 9.2529C130.276 7.67996 126.21 6.87047 122.104 6.87076C117.998 6.87105 113.932 7.68111 110.139 9.25459C106.346 10.8281 102.901 13.1341 100 16.0406C97.0996 13.134 93.6544 10.828 89.8617 9.25458C86.0689 7.68117 82.003 6.87129 77.8969 6.87129C73.7907 6.87129 69.7248 7.68117 65.9321 9.25458C62.1393 10.828 58.6941 13.134 55.7938 16.0406C49.9448 21.9021 46.66 29.8445 46.66 38.125C46.66 46.4055 49.9448 54.3479 55.7938 60.2094L97.7938 102.209C98.3798 102.795 99.1745 103.124 100.003 103.124C100.832 103.124 101.626 102.795 102.213 102.209L144.213 60.2094C150.061 54.3469 153.346 46.4038 153.345 38.1228C153.344 29.8417 150.059 21.8991 144.209 16.0375ZM100 95.5812L60.2094 55.7906C56.716 52.2925 54.3383 47.8372 53.3766 42.988C52.415 38.1387 52.9126 33.1132 54.8067 28.5467C56.7008 23.9803 59.9063 20.0779 64.0178 17.3329C68.1294 14.5879 72.9626 13.1236 77.9063 13.125C81.1903 13.1137 84.4436 13.7564 87.4766 15.0157C90.5096 16.2749 93.2616 18.1255 95.5719 20.4594L97.7906 22.6781C98.3766 23.264 99.1714 23.5931 100 23.5931C100.829 23.5931 101.623 23.264 102.209 22.6781L104.434 20.4531C106.754 18.1289 109.51 16.285 112.543 15.0269C115.577 13.7688 118.829 13.1213 122.113 13.1213C125.396 13.1213 128.648 13.7688 131.682 15.0269C134.715 16.285 137.471 18.1289 139.791 20.4531C144.472 25.1405 147.101 31.4942 147.101 38.1187C147.101 44.7433 144.472 51.0969 139.791 55.7844L100 95.5812Z" fill="#419EE0"/>
</svg>
