<svg width="200" height="200" viewBox="0 0 200 200" fill="none" xmlns="http://www.w3.org/2000/svg">
<g clip-path="url(#clip0)">
<path d="M185.862 161.87C187.217 159.276 187.988 156.33 187.988 153.206V145.751C187.988 137.644 182.824 130.72 175.612 128.095C174.159 120.099 169.548 113.104 162.795 108.59C164.148 105.996 164.919 103.051 164.919 99.9287V92.4744C164.919 82.1182 156.493 73.6927 146.137 73.6927C135.781 73.6927 127.356 82.1182 127.356 92.4744V99.9287C127.356 103.052 128.126 105.997 129.48 108.591C127.044 110.219 124.888 112.173 123.056 114.38C121.213 112.154 119.06 110.211 116.654 108.597C118.01 106.001 118.782 103.054 118.782 99.9287V92.4744C118.782 82.1182 110.356 73.6927 100 73.6927C89.6438 73.6927 81.2183 82.1182 81.2183 92.4744V99.9287C81.2183 103.054 81.99 106.002 83.3466 108.597C80.927 110.219 78.7635 112.177 76.913 114.419C75.0779 112.197 72.9272 110.228 70.5154 108.599C71.8724 106.003 72.6448 103.055 72.6448 99.9287V92.4744C72.6448 82.1182 64.2193 73.6927 53.8628 73.6927C43.5066 73.6927 35.0811 82.1182 35.0811 92.4744V99.9287C35.0811 103.052 35.8516 105.997 37.2058 108.591C30.4581 113.103 25.8421 120.099 24.3882 128.096C17.1764 130.72 12.0122 137.644 12.0122 145.751V153.206C12.0122 156.33 12.7831 159.276 14.1382 161.87C5.84672 167.409 0.830933 176.631 0.830933 186.749V196.127C0.830933 198.266 2.56523 200 4.70472 200H50.8424H96.98H149.158H195.296C197.435 200 199.17 198.266 199.17 196.127V186.749C199.169 176.631 194.154 167.408 185.862 161.87ZM180.241 145.751V153.206C180.241 159.29 175.291 164.24 169.207 164.24C163.123 164.24 158.173 159.29 158.173 153.206V145.751C158.173 139.667 163.123 134.717 169.207 134.717C175.291 134.717 180.241 139.667 180.241 145.751ZM167.394 127.059C157.885 127.974 150.425 136.007 150.425 145.751V153.206C150.425 156.332 151.197 159.279 152.553 161.875C150.152 163.486 148.002 165.43 146.159 167.653C144.329 165.452 142.168 163.502 139.725 161.87C141.08 159.276 141.85 156.33 141.85 153.206V145.751C141.85 136.007 134.391 127.975 124.883 127.059C126.453 121.955 129.869 117.478 134.446 114.612C137.657 117.174 141.72 118.71 146.137 118.71C150.555 118.71 154.617 117.174 157.828 114.612C162.408 117.479 165.823 121.954 167.394 127.059ZM112.034 153.206V145.751C112.034 139.667 116.984 134.717 123.068 134.717C129.153 134.717 134.103 139.667 134.103 145.751V153.206C134.103 159.29 129.153 164.24 123.068 164.24C116.984 164.24 112.034 159.29 112.034 153.206ZM135.103 92.4744C135.103 86.3898 140.053 81.4403 146.137 81.4403C152.221 81.4403 157.171 86.3902 157.171 92.4744V99.9287C157.171 106.013 152.221 110.963 146.137 110.963C140.053 110.963 135.103 106.013 135.103 99.9287V92.4744ZM88.9655 92.4744C88.9655 86.3898 93.9154 81.4403 99.9996 81.4403C106.084 81.4403 111.034 86.3902 111.034 92.4744V99.9287C111.034 106.013 106.084 110.963 99.9996 110.963C93.915 110.963 88.9651 106.013 88.9651 99.9287V92.4744H88.9655ZM88.3089 114.612C91.5199 117.174 95.5827 118.71 100 118.71C104.417 118.71 108.48 117.174 111.691 114.612C114.5 116.361 116.875 118.698 118.674 121.489C117.759 123.585 117.08 125.799 116.663 128.096C109.451 130.72 104.287 137.644 104.287 145.751V153.206C104.287 156.33 105.058 159.275 106.413 161.869C103.97 163.501 101.81 165.449 99.981 167.649C98.139 165.426 95.9883 163.486 93.585 161.874C94.9416 159.278 95.7132 156.331 95.7132 153.205V145.751C95.7132 137.642 90.5464 130.717 83.3322 128.094C82.9119 125.825 82.2263 123.621 81.302 121.526C83.1037 118.719 85.4884 116.368 88.3089 114.612ZM65.8967 153.206V145.751C65.8967 139.667 70.8466 134.717 76.9312 134.717C83.0157 134.717 87.9657 139.667 87.9657 145.751V153.206C87.9657 159.29 83.0157 164.24 76.9312 164.24C70.8466 164.24 65.8967 159.29 65.8967 153.206ZM42.8279 92.4744C42.8279 86.3898 47.7778 81.4403 53.862 81.4403C59.9465 81.4403 64.8965 86.3902 64.8965 92.4744V99.9287C64.8965 106.013 59.9465 110.963 53.8624 110.963C47.7778 110.963 42.8279 106.013 42.8279 99.9287V92.4744ZM42.1709 114.612C45.3819 117.174 49.4447 118.71 53.8624 118.71C58.2796 118.71 62.3429 117.174 65.5535 114.612C70.1342 117.479 73.5482 121.954 75.1179 127.059C65.6092 127.974 58.1491 136.007 58.1491 145.751V153.206C58.1491 156.33 58.92 159.276 60.275 161.87C57.8334 163.501 55.6737 165.448 53.8449 167.647C52.0033 165.424 49.8514 163.486 47.4474 161.874C48.8036 159.278 49.5752 156.332 49.5752 153.206V145.751C49.5752 136.007 42.1155 127.975 32.6073 127.059C34.1781 121.955 37.5944 117.478 42.1709 114.612ZM19.7594 145.751C19.7594 139.667 24.7094 134.717 30.7939 134.717C36.8781 134.717 41.828 139.667 41.828 145.751V153.206C41.828 159.29 36.8781 164.24 30.7939 164.24C24.7094 164.24 19.7594 159.29 19.7594 153.206V145.751ZM8.57813 186.749C8.57813 178.993 12.5619 171.944 19.1005 167.888C22.3115 170.45 26.3755 171.988 30.7935 171.988C35.2108 171.988 39.2737 170.451 42.4846 167.889C45.2912 169.636 47.6643 171.969 49.4617 174.756C47.8429 178.463 46.9682 182.528 46.9682 186.749V192.253H8.57813V186.749ZM54.7158 186.749C54.7158 178.993 58.6992 171.944 65.2377 167.888C68.4487 170.45 72.5127 171.988 76.9308 171.988C81.3481 171.988 85.4109 170.451 88.6219 167.89C91.4269 169.636 93.8004 171.97 95.5986 174.757C93.9801 178.464 93.1054 182.528 93.1054 186.749V192.253H54.7154V186.749H54.7158ZM100.853 186.749C100.853 178.993 104.837 171.944 111.375 167.888C114.586 170.45 118.65 171.988 123.068 171.988C127.486 171.988 131.55 170.451 134.761 167.888C141.3 171.944 145.284 178.996 145.284 186.749V192.253H100.853V186.749ZM191.422 192.252H153.032V186.749C153.032 182.529 152.157 178.465 150.538 174.758C152.337 171.971 154.713 169.634 157.515 167.889C160.726 170.451 164.789 171.987 169.206 171.987C173.624 171.987 177.688 170.45 180.899 167.887C187.438 171.943 191.421 178.992 191.421 186.748V192.252H191.422Z" fill="#419EE0"/>
<path d="M68.7168 32.931C70.7289 32.2043 71.7713 29.9839 71.0446 27.9718C68.6087 21.2268 69.4885 15.8902 73.7345 11.6577C78.9723 6.43625 87.4954 6.43625 92.7336 11.6577C96.808 15.719 103.192 15.7194 107.266 11.6577C112.505 6.43625 121.027 6.43625 126.265 11.6577C130.068 15.4482 131.164 20.1057 129.615 25.8959C125.733 40.4051 107.729 55.2216 100.003 58.1436C97.7923 57.3007 94.7084 55.4583 91.4901 53.0387C89.7798 51.7526 87.3509 52.097 86.066 53.8073C84.7803 55.5176 85.1243 57.9461 86.8345 59.2314C91.4583 62.7073 95.7787 65.0955 99.0006 65.9559C99.3279 66.0434 99.6642 66.0872 100 66.0872C100.337 66.0872 100.673 66.0434 101 65.9559C106.156 64.5788 114.006 59.3015 120.998 52.5111C125.8 47.8482 134.277 38.4504 137.1 27.8978C139.363 19.4375 137.508 11.9243 131.735 6.17051C123.481 -2.05781 110.051 -2.05781 101.797 6.17051C100.617 7.34582 99.0963 7.06032 98.2037 6.17051C89.9491 -2.05743 76.519 -2.05665 68.2651 6.17051C61.8525 12.5627 60.2936 21.0114 63.7576 30.6029C64.4843 32.6153 66.7044 33.6566 68.7168 32.931Z" fill="#419EE0"/>
<path d="M76.4915 40.2894C74.352 40.2894 72.6193 42.0237 72.6193 44.1632C72.6193 46.3027 74.3547 48.037 76.4942 48.037C78.6337 48.037 80.368 46.3027 80.368 44.1632C80.368 42.0237 78.6337 40.2894 76.4942 40.2894H76.4915Z" fill="#419EE0"/>
</g>
<defs>
<clipPath id="clip0">
<rect width="200" height="200" fill="white"/>
</clipPath>
</defs>
</svg>
