<svg width="270" height="208" viewBox="0 0 270 208" fill="none" xmlns="http://www.w3.org/2000/svg">
<path opacity="0.45" d="M248.529 122.217C242.655 112.865 234.609 105.414 226.256 98.7085C219.257 93.0842 211.535 87.2935 208.648 78.3245C207.069 73.4324 207.115 68.0244 205.325 63.2154C202.978 56.8007 195.646 49.034 189.415 46.2343C179.862 41.9495 168.335 48.4474 158.424 45.1069C154.328 43.7258 153.248 41.0925 150.427 38.3261C147.408 35.3642 143.781 32.785 140.288 30.4221C133.447 25.7504 125.862 22.0064 117.712 20.384C103.344 17.5178 88.0159 21.632 76.1733 30.5511C69.0453 35.9258 63.151 42.977 58.7271 50.9018C54.5151 58.4813 52.6542 66.8845 48.7579 74.5389C41.443 88.8784 26.269 96.8282 19.1077 111.255C13.8116 121.888 13.5956 134.855 16.3745 146.565C19.1534 158.276 24.6822 168.95 30.4976 179.238L30.5765 179.367H40.1553C76.7424 179.242 234.377 178.751 238.123 179.492H245.409C250.722 174.857 255.57 162.057 256.537 154.328C257.954 143.079 254.398 131.568 248.529 122.217Z" fill="#F7EEEB"/>
<path d="M172.044 110.502C170.715 112.582 167.242 115.024 164.779 114.991C156.388 114.837 153.626 109.113 152.733 107.028C152.903 106.987 153.19 106.954 153.393 106.929C154.939 106.704 156.517 105.173 156.978 103.447C157.572 101.2 158.303 96.7907 158.224 94.016L168.837 99.8982C168.837 100.705 168.767 101.587 168.692 102.477C168.638 103.018 168.584 103.551 168.522 104.067C168.459 104.582 168.397 105.032 168.335 105.464C168.236 106.175 168.339 106.9 168.633 107.555C168.927 108.21 169.399 108.769 169.996 109.167L172.044 110.502Z" fill="#FE8E68"/>
<path d="M172.958 87.6263C172.385 89.1322 172.625 90.8419 173.207 92.3437C173.622 93.4045 174.532 92.4685 175.67 92.4893C177.431 92.5184 178.806 90.6839 179.87 85.8333C180.547 82.264 180.701 80.4544 180.58 80.1091C180.094 78.8611 178.503 78.2122 177.17 78.0957" fill="#3D302A"/>
<path d="M175.637 76.9309C178.412 80.2589 179.421 89.7021 177.078 96.2665C175.417 100.934 173.477 103.946 171.217 103.85C167.786 103.705 161.136 100.88 158.972 98.5213C155.067 94.2656 156.185 85.9414 157.015 80.704C157.746 75.9408 159.973 69.7549 165.95 70.9322C169.892 71.6976 173.149 73.9232 175.637 76.9309Z" fill="#FE8E68"/>
<path d="M159.877 79.9428C160.492 80.6791 161.576 80.8414 162.469 80.987C162.987 81.028 163.484 81.207 163.909 81.5055C164.334 81.8039 164.672 82.211 164.887 82.6842C165.302 83.3831 165.676 84.1486 166.382 84.5271C166.715 84.706 167.213 84.731 167.383 84.3899C167.233 84.2724 167.12 84.1132 167.058 83.932C166.997 83.7509 166.99 83.5557 167.039 83.3707C167.141 83.0033 167.329 82.6654 167.587 82.3847C167.747 82.6891 167.86 83.0158 167.923 83.354C168.076 83.7888 168.39 84.1479 168.8 84.3566C168.862 84.3938 168.935 84.4112 169.008 84.4065C169.103 84.3793 169.185 84.3188 169.24 84.2359C169.676 83.7118 170.104 82.7134 170.711 82.3931C170.823 82.9372 171.059 83.4481 171.4 83.8865C171.665 84.3305 172.083 84.6619 172.576 84.8183C172.654 84.8416 172.738 84.8409 172.817 84.8165C172.895 84.7921 172.964 84.7449 173.016 84.681C173.112 84.5022 172.962 84.3233 172.987 84.1402C173.016 83.9965 173.08 83.8622 173.174 83.7492C173.378 83.3757 173.619 83.0232 173.892 82.6967C174.486 83.3733 175.134 84.0008 175.828 84.5729C175.982 84.6977 176.206 84.8225 176.36 84.6977C176.433 84.6197 176.476 84.5177 176.48 84.4107L176.738 82.8257C176.788 82.5303 176.958 82.1435 177.249 82.2183C177.39 82.2558 177.473 82.3931 177.552 82.5179C177.631 82.6427 179.355 84.4772 179.388 84.3399C179.654 83.3166 180.219 82.3847 180.464 81.3614C182.171 74.7719 174.545 69.4763 168.717 69.4471C167.444 69.4855 166.18 69.6684 164.949 69.9921C163.608 70.2916 162.22 70.5121 161.003 71.1819C159.296 72.1179 158.004 73.8193 158.336 75.8494" fill="#3D302A"/>
<path d="M162.685 78.208C163.516 79.169 163.757 80.521 163.836 81.7981C163.952 83.7242 163.794 85.7251 162.906 87.4349C162.652 87.9216 162.465 90.3469 162.075 90.1971C161.95 90.1555 161.971 88.2877 161.659 87.2851C161.153 85.7251 158.818 85.1302 157.767 86.1162C156.106 87.6845 157.074 89.5898 157.63 90.7754C157.962 91.4909 158.49 92.2938 158.581 93.0509C158.694 94.0202 158.727 97.552 158.095 98.3757C157.568 99.0663 157.007 95.7299 156.529 95.0727C152.994 90.1763 149.605 77.7088 155.64 75.0048C156.558 74.5888 159.379 74.3808 160.251 74.905" fill="#3D302A"/>
<path d="M185.033 177.307C185.386 177.372 185.743 177.412 186.101 177.428C188.045 177.491 189.922 177.062 191.821 176.738C193.482 176.451 193.943 176.292 193.897 174.275C193.588 158.273 191.287 142.373 187.048 126.942C186.404 124.588 185.702 122.217 184.468 120.112C182.362 116.522 177.527 113.422 173.818 111.683C173.294 111.438 171.126 112.819 170.599 112.582C170.138 112.374 169.73 112.05 169.265 111.846C167.903 111.251 166.989 112.495 165.851 113.015C165.26 113.299 164.612 113.441 163.957 113.431C163.429 113.41 162.951 113.09 162.47 113.339C160.301 114.462 154.918 106.126 154.918 106.126L152.583 108.576L145.759 115.715L128.703 139.248C128.703 139.248 125.608 158.533 123.481 171.176C123.112 173.355 121.65 178.069 121.359 179.72C121.421 179.363 135.897 179.267 136.699 179.267H166.245C167.907 179.267 172.36 179.97 173.523 178.751C174.956 177.253 176.613 170.381 176.701 168.455C176.987 161.978 176.543 155.559 176.455 149.036C176.493 151.686 177.253 154.082 177.577 156.678C177.992 160.006 178.595 163.355 179.135 166.662C179.55 169.333 179.965 172.012 180.314 174.699C180.464 175.91 180.273 176.629 181.295 177.104C182.155 177.511 184.016 177.137 185.033 177.307Z" fill="#BC744A"/>
<path d="M179.558 171.775C178.769 171.45 173.897 170.24 171.699 169.782C170.549 169.545 165.332 168.189 164.123 168.189C162.914 168.189 161.269 169.919 161.269 169.919L161.684 175.872C162.848 175.756 164.405 176.359 165.24 176.475C166.075 176.592 168.912 176.609 170.64 175.731C170.74 175.681 170.831 175.627 170.923 175.573C171.625 176.197 172.505 176.821 173.481 176.854C173.481 176.854 174.246 176.775 174.171 176.467C173.859 175.89 173.51 175.334 173.124 174.803C173.872 175.564 175.093 176.8 176.501 176.883C176.501 176.883 177.266 176.804 177.191 176.496C176.78 175.754 176.325 175.037 175.828 174.35H175.853C176.472 174.895 177.93 176.775 179.683 176.846C179.683 176.846 180.447 176.767 180.373 176.459C180.179 176.072 179.955 175.7 179.704 175.348C180.223 175.745 180.78 176.09 181.365 176.38C183.247 177.312 184.319 176.604 184.319 176.38C184.319 176.155 180.348 172.099 179.558 171.775Z" fill="#FE8E68"/>
<path d="M162.615 164.861C162.615 164.861 165.647 166.583 165.377 170.244C165.107 173.905 164.011 178.148 159.433 177.703C154.856 177.258 162.615 164.861 162.615 164.861Z" fill="#874C2E"/>
<path d="M158.448 177.341C147.474 181.155 132.79 177.511 123.481 171.176C117.666 167.215 113.928 162.186 114.555 157.273C116.179 144.51 126.186 115.257 134.859 110.989C140.749 108.077 147.894 106.883 151.89 106.413C153.759 106.184 154.926 106.13 154.926 106.13L153.48 110.215L146.215 130.624C145.945 142.75 137.28 149.951 139.004 152.776C140.728 155.601 154.34 158.633 161.489 163.455C163.483 164.807 165.992 174.495 158.448 177.341Z" fill="#BC744A"/>
<path d="M114.555 157.589L114.53 158.421C114.521 158.56 114.521 158.699 114.53 158.837L114.58 159.253C114.601 159.532 114.639 159.81 114.692 160.085L114.891 160.917C115.216 161.995 115.696 163.019 116.316 163.958C117.552 165.847 119.093 167.515 120.877 168.896C124.445 171.666 128.439 173.835 132.703 175.319C136.936 176.895 141.363 177.891 145.862 178.281C148.11 178.482 150.371 178.491 152.621 178.306C154.876 178.14 157.105 177.722 159.267 177.058C157.131 177.846 154.908 178.372 152.646 178.626C150.379 178.873 148.096 178.923 145.821 178.776C143.543 178.635 141.281 178.314 139.054 177.815C136.833 177.326 134.646 176.692 132.508 175.918C130.365 175.131 128.283 174.188 126.277 173.098C124.262 172.015 122.36 170.734 120.599 169.275C118.818 167.827 117.291 166.09 116.083 164.137C115.491 163.155 115.045 162.091 114.758 160.98C114.48 159.872 114.411 158.722 114.555 157.589Z" fill="#874C2E"/>
<path d="M146.215 130.624C146.215 132.933 145.909 135.231 145.306 137.459C144.687 139.686 143.852 141.847 142.813 143.911C142.302 144.947 141.758 145.962 141.198 146.965C140.637 147.967 140.076 148.97 139.611 149.993C139.374 150.488 139.204 151.013 139.104 151.553C139.065 151.798 139.075 152.048 139.133 152.289C139.162 152.401 139.206 152.509 139.262 152.61C139.332 152.712 139.41 152.81 139.494 152.901C140.238 153.645 141.301 154.149 142.311 154.636C146.465 156.528 150.859 157.93 155.055 159.819C157.177 160.738 159.221 161.826 161.169 163.072L161.526 163.313C161.647 163.397 161.759 163.505 161.875 163.6C162.089 163.808 162.275 164.043 162.428 164.299C162.724 164.803 162.952 165.345 163.105 165.909C163.4 167.026 163.549 168.177 163.549 169.333C163.482 168.188 163.28 167.056 162.947 165.959C162.59 164.882 162.037 163.833 161.003 163.33C159.043 162.151 156.993 161.13 154.872 160.277C152.758 159.403 150.618 158.575 148.471 157.781C146.323 156.986 144.163 156.187 142.053 155.222C141.015 154.706 139.947 154.22 139.062 153.325C138.952 153.204 138.852 153.075 138.763 152.938C138.679 152.789 138.615 152.63 138.572 152.464C138.495 152.145 138.483 151.814 138.535 151.491C138.647 150.899 138.837 150.326 139.1 149.785C139.594 148.72 140.172 147.705 140.732 146.723C141.293 145.741 141.858 144.726 142.394 143.716C144.533 139.672 146.016 135.242 146.215 130.624Z" fill="#874C2E"/>
<path d="M174.673 112.083C173.626 113.123 168.966 116.447 164.521 116.447C163.734 116.446 162.948 116.372 162.174 116.226C158.436 115.544 155.304 113.052 153.451 110.198C153.116 109.674 152.82 109.124 152.567 108.555C152.245 107.868 152.008 107.145 151.86 106.4C153.73 106.172 155.516 105.701 155.807 105.369C156.122 107.548 158.81 111.484 162.868 112.224C163.348 112.315 163.834 112.363 164.322 112.37C165.866 112.404 167.387 111.99 168.7 111.176C168.7 111.176 170.648 109.645 170.656 109.637L174.673 112.083Z" fill="#BC744A"/>
<path d="M168.368 91.9111C168.783 91.9111 169.12 91.2443 169.12 90.4218C169.12 89.5993 168.783 88.9325 168.368 88.9325C167.953 88.9325 167.616 89.5993 167.616 90.4218C167.616 91.2443 167.953 91.9111 168.368 91.9111Z" fill="#56211A"/>
<path d="M168.688 91.4618C168.869 91.4618 169.016 91.2588 169.016 91.0084C169.016 90.7579 168.869 90.5549 168.688 90.5549C168.506 90.5549 168.359 90.7579 168.359 91.0084C168.359 91.2588 168.506 91.4618 168.688 91.4618Z" fill="white"/>
<path d="M176.472 92.5932C176.887 92.5932 177.224 91.9264 177.224 91.1039C177.224 90.2814 176.887 89.6146 176.472 89.6146C176.057 89.6146 175.72 90.2814 175.72 91.1039C175.72 91.9264 176.057 92.5932 176.472 92.5932Z" fill="#56211A"/>
<path d="M173.892 97.5021C173.892 97.8182 172.571 99.7277 171.296 99.5821C170.225 99.4531 169.29 97.4438 169.851 96.5286C170.15 96.2042 173.901 97.1859 173.892 97.5021Z" fill="white"/>
<path d="M166.125 86.7652C167.059 85.9332 169.302 86.2619 170.258 86.8734C170.298 86.8928 170.344 86.8978 170.388 86.8873C170.431 86.8769 170.47 86.8518 170.497 86.8162C170.525 86.7805 170.539 86.7366 170.538 86.6917C170.536 86.6468 170.52 86.6038 170.49 86.5697C169.847 85.9249 168.767 85.8875 167.907 85.9207C167.255 85.9457 166.187 85.9207 165.963 86.6779C165.958 86.6978 165.96 86.7186 165.968 86.7373C165.977 86.7559 165.99 86.7715 166.008 86.7817C166.026 86.792 166.046 86.7963 166.066 86.7941C166.087 86.7918 166.106 86.7832 166.121 86.7694L166.125 86.7652Z" fill="#3D302A"/>
<path d="M175.243 87.3226C175.793 87.2308 176.354 87.2308 176.904 87.3226C177.432 87.5116 177.934 87.766 178.399 88.0798C178.422 88.0955 178.449 88.1028 178.476 88.1004C178.504 88.098 178.529 88.0861 178.548 88.0667C178.568 88.0474 178.58 88.0218 178.582 87.9945C178.584 87.9672 178.577 87.94 178.561 87.9175C178.063 86.8151 176.131 86.4116 175.168 87.0855C175.068 87.1562 175.093 87.3476 175.234 87.3393L175.243 87.3226Z" fill="#3D302A"/>
<path d="M172.954 90.4591C172.91 91.3227 172.956 92.1884 173.091 93.0425C173.141 93.3462 173.531 94.1615 173.469 94.4194C173.407 94.6774 172.904 95.0559 172.734 95.3388C172.719 95.3691 172.714 95.4031 172.72 95.4362C172.726 95.4692 172.742 95.4997 172.765 95.5234C172.789 95.5472 172.819 95.5629 172.852 95.5686C172.885 95.5743 172.919 95.5696 172.95 95.5551C173.456 95.293 174.038 94.902 173.93 94.3071C173.822 93.7122 173.573 93.1922 173.485 92.6057C173.377 91.8985 173.373 91.1871 173.307 90.4716C173.307 90.4242 173.288 90.3787 173.255 90.3451C173.221 90.3116 173.176 90.2927 173.128 90.2927C173.081 90.2927 173.035 90.3116 173.002 90.3451C172.968 90.3787 172.95 90.4242 172.95 90.4716L172.954 90.4591Z" fill="#CC6144"/>
<path d="M176.7 92.1731C176.882 92.1731 177.029 91.9571 177.029 91.6906C177.029 91.4241 176.882 91.208 176.7 91.208C176.519 91.208 176.372 91.4241 176.372 91.6906C176.372 91.9571 176.519 92.1731 176.7 92.1731Z" fill="white"/>
<path d="M164.002 101.088C164.636 101.791 165.403 102.361 166.259 102.765C167.114 103.17 168.042 103.4 168.987 103.443C169.165 103.443 169.211 103.156 169.028 103.122C167.25 102.821 165.581 102.058 164.189 100.909C164.177 100.897 164.163 100.888 164.148 100.882C164.133 100.875 164.116 100.872 164.1 100.872C164.083 100.872 164.067 100.875 164.051 100.882C164.036 100.888 164.022 100.897 164.01 100.909C163.999 100.921 163.989 100.935 163.983 100.95C163.977 100.965 163.973 100.982 163.973 100.999C163.973 101.015 163.977 101.032 163.983 101.047C163.989 101.062 163.999 101.076 164.01 101.088H164.002Z" fill="#CC6144"/>
<path d="M154.909 105.435C152.209 104.154 150.756 108.218 150.49 110.211C149.966 114.042 151.661 117.607 153.206 120.998C154.826 124.559 156.679 127.999 158.336 131.539C159.206 133.366 159.937 135.256 160.521 137.193C161.119 139.223 161.186 141.486 161.921 143.433C161.939 143.487 161.976 143.534 162.024 143.564C162.073 143.595 162.131 143.607 162.188 143.599C162.245 143.591 162.297 143.564 162.335 143.521C162.374 143.478 162.396 143.424 162.399 143.366C162.756 140.529 161.502 137.039 160.525 134.385C159.545 131.861 158.427 129.393 157.177 126.992C155.603 123.835 154.008 120.644 152.716 117.358C152.019 115.719 151.58 113.981 151.416 112.208C151.325 110.785 151.831 104.998 154.606 106.142C155.022 106.313 155.312 105.61 154.909 105.419V105.435Z" fill="#874C2E"/>
<path d="M170.686 109.824C174.083 111.118 172.895 117.337 172.43 120.033C171.829 123.307 170.837 126.497 169.477 129.534C166.889 135.479 163.4 140.995 160.276 146.661C160.234 146.755 160.228 146.861 160.259 146.959C160.29 147.057 160.357 147.14 160.446 147.192C160.535 147.244 160.64 147.26 160.74 147.239C160.841 147.218 160.93 147.16 160.991 147.077C164.874 140.25 169.298 133.628 171.861 126.148C173.095 122.671 173.77 119.02 173.863 115.332C173.897 112.886 173.539 109.924 170.893 109.017C170.399 108.851 170.208 109.608 170.681 109.787L170.686 109.824Z" fill="#874C2E"/>
<path d="M166.154 143.77L158.262 143.52C158.073 143.525 157.893 143.603 157.759 143.737C157.626 143.87 157.548 144.05 157.543 144.24C157.049 148.188 156.878 152.21 156.297 156.141C156.27 156.248 156.267 156.36 156.29 156.468C156.312 156.575 156.358 156.677 156.424 156.764C156.491 156.852 156.577 156.923 156.675 156.973C156.773 157.023 156.881 157.05 156.991 157.053C159.578 157.107 162.17 157.186 164.758 157.211C164.878 157.213 164.997 157.184 165.103 157.127L165.178 157.082C165.311 156.987 165.404 156.846 165.439 156.686C166.441 152.805 166.441 148.458 166.856 144.477C166.851 144.292 166.775 144.115 166.645 143.984C166.514 143.853 166.339 143.776 166.154 143.77Z" fill="#874C2E"/>
<path d="M176.572 159.781C176.684 157.639 176.472 155.472 176.459 153.325C176.459 151.104 176.509 148.882 176.63 146.669C176.746 144.518 176.916 142.368 177.161 140.229C177.415 138.025 177.876 135.841 178.108 133.636C178.142 133.34 177.668 133.286 177.597 133.565C177.141 135.629 176.821 137.72 176.638 139.826C176.372 142.097 176.173 144.402 176.065 146.669C175.957 148.886 175.944 151.112 175.994 153.325C176.044 155.472 176.044 157.689 176.484 159.794C176.484 159.848 176.572 159.831 176.576 159.794L176.572 159.781Z" fill="#874C2E"/>
<path d="M154.739 109.433C155.441 112.316 158.664 114.762 161.497 115.186C161.544 115.192 161.591 115.18 161.63 115.153C161.668 115.126 161.696 115.086 161.707 115.04C161.717 114.994 161.711 114.946 161.688 114.905C161.666 114.863 161.629 114.832 161.585 114.816C160.118 114.4 158.751 113.692 157.564 112.736C156.421 111.767 155.723 110.573 154.922 109.341C154.908 109.32 154.887 109.305 154.863 109.298C154.839 109.291 154.813 109.292 154.79 109.302C154.767 109.312 154.748 109.33 154.736 109.352C154.725 109.374 154.721 109.4 154.727 109.425L154.739 109.433Z" fill="#874C2E"/>
<path d="M164.177 115.203C164.671 115.091 165.161 114.974 165.647 114.837C166.092 114.75 166.521 114.594 166.918 114.375C166.942 114.358 166.961 114.335 166.971 114.307C166.981 114.279 166.982 114.249 166.975 114.221C166.967 114.192 166.95 114.167 166.928 114.149C166.905 114.13 166.877 114.119 166.848 114.117C165.955 114.092 164.916 114.587 164.085 114.883C164.042 114.895 164.006 114.923 163.984 114.962C163.962 115.001 163.957 115.048 163.969 115.091C163.981 115.134 164.01 115.17 164.049 115.192C164.088 115.214 164.134 115.219 164.177 115.207V115.203Z" fill="#874C2E"/>
<path d="M159.362 88.1919C159.636 87.7759 160.06 89.078 160.077 89.1862C160.131 89.6742 160.078 90.1682 159.923 90.6339C159.873 90.8169 160.438 90.6713 160.505 90.5423C160.87 89.8351 160.899 88.6038 160.264 88.0214C160.156 87.9368 160.032 87.8746 159.9 87.8385C159.768 87.8023 159.63 87.7928 159.495 87.8106C159.359 87.8284 159.228 87.8732 159.11 87.9422C158.991 88.0113 158.888 88.1032 158.806 88.2127C158.677 88.4166 159.275 88.3334 159.366 88.1919H159.362Z" fill="#CC6144"/>
<path d="M160.259 89.1905C160.251 89.1367 160.251 89.0819 160.259 89.0282C160.264 89.0223 160.267 89.015 160.267 89.0074C160.267 88.9999 160.264 88.9925 160.259 88.9866C160.156 88.848 160.011 88.7464 159.846 88.6969C159.681 88.6474 159.504 88.6528 159.341 88.7121C159.321 88.7121 159.25 88.7537 159.279 88.7869C159.308 88.8202 159.52 88.8701 159.624 88.9201C159.706 88.9636 159.781 89.0182 159.848 89.0823C159.923 89.1489 160.014 89.178 160.089 89.2404C160.164 89.3028 160.255 89.2404 160.251 89.1863L160.259 89.1905Z" fill="#CC6144"/>
<path d="M169.76 99.8692C169.922 100.098 170.161 100.261 170.433 100.329C170.705 100.396 170.992 100.365 171.242 100.239C171.28 100.219 171.276 100.19 171.242 100.194C171.035 100.218 170.824 100.188 170.631 100.105C170.439 100.023 170.272 99.8912 170.146 99.7236C170.084 99.6362 169.697 99.7652 169.772 99.8692H169.76Z" fill="#CC6144"/>
<path d="M166.677 91.1539C166.642 91.3071 166.637 91.4657 166.664 91.6207C166.69 91.7756 166.747 91.9238 166.831 92.0566C166.902 92.1816 166.999 92.2902 167.115 92.3755C167.231 92.4608 167.363 92.5208 167.504 92.5517C167.537 92.5517 167.712 92.5226 167.67 92.4643C167.508 92.2397 167.255 92.1107 167.122 91.8611C166.983 91.6344 166.895 91.3804 166.864 91.1165C166.864 91.0707 166.681 91.1165 166.677 91.1581V91.1539Z" fill="#CC6144"/>
<path d="M176.642 93.2131C176.671 93.2131 176.75 93.1674 176.684 93.1674C176.617 93.1674 176.576 93.2131 176.642 93.2131Z" fill="#CC6144"/>
<path d="M177.103 93.1257C177.378 92.9843 177.764 92.5725 177.519 92.2605C177.519 92.2355 177.419 92.2605 177.411 92.2896C177.282 92.585 177.253 92.9011 176.937 93.0634C176.755 93.1549 177.037 93.1673 177.12 93.1257H177.103Z" fill="#CC6144"/>
<path d="M176.692 143.146C176.809 141.378 177.619 139.996 178.699 138.628C179.529 137.567 180.584 136.881 181.548 135.965C181.572 135.943 181.587 135.913 181.592 135.881C181.597 135.848 181.591 135.815 181.574 135.787C181.558 135.759 181.533 135.736 181.502 135.724C181.472 135.712 181.438 135.711 181.407 135.72C180.003 136.161 178.865 137.588 178.026 138.728C177.187 139.868 175.924 141.606 176.464 143.171C176.471 143.198 176.488 143.221 176.511 143.237C176.535 143.252 176.563 143.259 176.591 143.255C176.618 143.252 176.644 143.238 176.663 143.217C176.681 143.196 176.692 143.169 176.692 143.141V143.146Z" fill="#874C2E"/>
<path d="M176.48 144.198C176.925 143.653 177.207 142.992 177.598 142.405C178.062 141.713 178.597 141.07 179.193 140.487C179.309 140.375 180.41 139.239 180.518 140.15C180.584 140.72 179.446 140.937 179.11 141.141C178.773 141.344 178.478 141.557 178.478 142.014C178.478 142.049 178.49 142.083 178.511 142.111C178.532 142.139 178.562 142.158 178.595 142.167C178.629 142.177 178.665 142.174 178.697 142.161C178.729 142.147 178.756 142.123 178.773 142.093C179.222 141.19 180.85 141.224 181.008 140.013C181.024 139.907 181.014 139.799 180.979 139.698C180.944 139.597 180.885 139.505 180.806 139.432C180.728 139.359 180.634 139.306 180.531 139.277C180.428 139.249 180.319 139.246 180.215 139.269C179.384 139.36 178.478 140.6 178.001 141.195C177.336 142.027 176.551 143.062 176.389 144.14C176.389 144.19 176.443 144.244 176.484 144.194L176.48 144.198Z" fill="#874C2E"/>
<path d="M159.99 166.134C159.99 167.573 159.969 168.967 159.462 170.335C158.955 171.704 158.05 172.74 157.211 173.892C157.148 173.98 157.269 174.079 157.352 174.034C159.811 172.669 161.057 168.717 160.214 166.105C160.205 166.08 160.187 166.06 160.165 166.046C160.142 166.033 160.116 166.027 160.09 166.031C160.064 166.034 160.04 166.046 160.022 166.065C160.004 166.083 159.992 166.108 159.99 166.134Z" fill="#874C2E"/>
<path d="M170.943 152.892C170.59 155.11 170.183 157.132 169.037 159.103C167.888 161.076 166.293 162.752 164.38 163.996C164.348 164.014 164.324 164.045 164.314 164.081C164.304 164.118 164.309 164.156 164.328 164.189C164.347 164.222 164.378 164.245 164.414 164.255C164.45 164.265 164.489 164.26 164.521 164.241C168.33 162.069 171.537 157.493 171.271 152.938C171.271 152.759 170.972 152.697 170.943 152.892Z" fill="#874C2E"/>
<path d="M183.421 96.4537C183.899 96.2582 184.514 96.071 184.817 95.6217C184.827 95.6058 184.832 95.5875 184.832 95.5688C184.833 95.5501 184.828 95.5317 184.818 95.5155C184.809 95.4993 184.795 95.486 184.779 95.4769C184.763 95.4677 184.744 95.4632 184.726 95.4637C184.202 95.4637 183.696 95.8339 183.272 96.096C183.097 96.2041 183.21 96.5328 183.421 96.4496V96.4537Z" fill="#874C2E"/>
<path d="M183.488 97.6977C183.637 97.8226 183.817 97.9051 184.01 97.9366C184.202 97.9681 184.399 97.9473 184.58 97.8765C184.603 97.8628 184.621 97.8435 184.634 97.8205C184.647 97.7976 184.653 97.7718 184.653 97.7455C184.653 97.7192 184.647 97.6934 184.634 97.6705C184.621 97.6475 184.603 97.6282 184.58 97.6145C184.438 97.5477 184.287 97.5015 184.132 97.4772C183.967 97.4368 183.806 97.3839 183.65 97.3191C183.421 97.2276 183.313 97.5687 183.492 97.6935L183.488 97.6977Z" fill="#874C2E"/>
<path d="M183.048 100.06C183.336 100.289 183.683 100.433 184.049 100.476C184.068 100.476 184.088 100.47 184.105 100.46C184.122 100.45 184.136 100.436 184.146 100.419C184.156 100.402 184.161 100.382 184.162 100.363C184.162 100.343 184.157 100.323 184.148 100.306C183.906 100.033 183.593 99.834 183.243 99.7318C183.023 99.6361 182.827 99.9356 183.048 100.065V100.06Z" fill="#874C2E"/>
<path d="M33.8538 179.492H45.1107H64.0481H71.9362H91.8373H238.123H245.409H251.586" stroke="black" stroke-width="2.19" stroke-miterlimit="10" stroke-linecap="round"/>
<path d="M31.0997 179.492H18.8999" stroke="black" stroke-width="2.19" stroke-miterlimit="10" stroke-linecap="round"/>
<path d="M255.391 179.492H253.347" stroke="black" stroke-width="2.19" stroke-miterlimit="10" stroke-linecap="round"/>
<path d="M227.112 176.979H158.162C157.494 176.979 156.953 177.521 156.953 178.19V178.277C156.953 178.945 157.494 179.487 158.162 179.487H227.112C227.779 179.487 228.32 178.945 228.32 178.277V178.19C228.32 177.521 227.779 176.979 227.112 176.979Z" fill="#2D2442"/>
<path d="M240.574 146.216L197.532 145.8L191.422 145.737C191.247 145.734 191.076 145.778 190.925 145.865C190.773 145.951 190.648 146.077 190.562 146.228L178.736 173.555L177.049 177.457C177.033 177.499 177.019 177.542 177.008 177.586C176.994 177.627 176.983 177.669 176.974 177.711C176.938 177.845 176.93 177.985 176.951 178.122C176.973 178.259 177.023 178.39 177.099 178.506C177.175 178.622 177.274 178.72 177.391 178.795C177.508 178.87 177.639 178.918 177.776 178.938C177.924 178.98 178.081 178.98 178.229 178.938L222.467 179.283L228.781 179.333C228.998 179.328 229.207 179.255 229.38 179.123C229.552 178.992 229.679 178.809 229.741 178.601L241.534 147.451C241.568 147.305 241.57 147.153 241.538 147.006C241.507 146.859 241.442 146.721 241.35 146.603C241.258 146.484 241.14 146.388 241.006 146.321C240.872 146.254 240.724 146.218 240.574 146.216Z" fill="#2D2442"/>
<path d="M240.574 145.534L200.843 145.118L196.003 145.068C194.545 145.068 192.859 144.797 191.434 145.022C189.295 145.355 188.747 148.72 188.016 150.43L180.123 168.659C178.996 171.263 177.87 173.866 176.746 176.467C176.331 177.449 175.915 178.639 177.024 179.379C177.589 179.758 178.441 179.637 179.052 179.646C180.688 179.666 182.329 179.671 183.966 179.683L193.798 179.758L213.458 179.912L223.261 179.987L227.207 180.016C228.221 180.016 229.226 180.22 230.011 179.471C230.842 178.66 231.149 176.817 231.552 175.756L233.276 171.18L237.301 160.576L241.039 150.7C241.662 149.036 243.399 146.245 240.757 145.563C239.926 145.342 239.544 146.661 240.396 146.881C241.247 147.102 238.298 154.116 238.003 154.898L235.108 162.49L232.233 170.086L230.954 173.505C230.484 174.753 230.144 176.588 229.371 177.665C228.378 179.08 226.306 178.635 224.835 178.622L220.827 178.589L212.635 178.527L196.248 178.398L179.862 178.289C179.297 178.289 178.341 178.527 177.942 178.023C177.432 177.383 177.722 178.306 177.913 177.154C178.075 176.193 178.794 175.119 179.16 174.242L182.586 166.338L189.158 151.145C189.644 150.022 190.034 148.262 190.819 147.347C191.841 146.124 193.461 146.453 194.857 146.47L203.327 146.557L240.574 146.935C241.455 146.906 241.455 145.542 240.574 145.534Z" fill="#2D2442"/>
<path d="M207.538 165.988C209.376 165.988 210.866 164.9 210.866 163.559C210.866 162.217 209.376 161.129 207.538 161.129C205.701 161.129 204.211 162.217 204.211 163.559C204.211 164.9 205.701 165.988 207.538 165.988Z" fill="#5A4F72"/>
<path d="M213.936 165.073C214.894 165.073 215.672 164.507 215.672 163.808C215.672 163.11 214.894 162.544 213.936 162.544C212.977 162.544 212.199 163.11 212.199 163.808C212.199 164.507 212.977 165.073 213.936 165.073Z" fill="#5A4F72"/>
<path d="M132.616 170.606C134.738 170.352 138.498 169.774 138.593 168.472C137.218 167.581 135.685 166.683 134.07 166.604C132.765 166.541 131.503 167.02 130.31 167.552C129.297 168.004 128.303 168.497 127.328 169.029C126.913 169.25 125.882 170.032 125.866 170.577C125.845 171.255 127.087 170.855 127.581 170.889C129.265 170.954 130.95 170.86 132.616 170.606Z" fill="#C1ADA4"/>
<path d="M127.602 169.499C127.602 169.499 130.427 178.755 131.918 178.98C133.409 179.204 148.027 179.313 148.413 179.146C148.517 179.112 148.611 179.054 148.688 178.977C148.765 178.899 148.823 178.805 148.857 178.701C148.857 178.701 158.158 179.313 158.324 179.088C158.49 178.863 158.324 177.757 157.879 177.59C157.435 177.424 143.378 174.262 142.161 173.821C140.944 173.38 137.123 173.489 137.123 173.489L136.346 168.11L127.602 169.499Z" fill="#FE8E68"/>
<path d="M131.012 53.3479C131.469 53.8426 131.823 54.4231 132.054 55.0557C132.285 55.6884 132.389 56.3607 132.358 57.0337C132.288 57.8329 132.116 58.6199 131.847 59.3758C131.386 60.8484 130.838 62.371 129.696 63.4068C129.614 63.5018 129.511 63.5769 129.396 63.6266C129.281 63.6763 129.156 63.6993 129.031 63.6939L127.656 59.4548C127.419 58.7756 127.231 58.0805 127.091 57.3748C126.873 56.1819 126.964 54.9528 127.357 53.8055C127.513 53.2764 127.819 52.8039 128.238 52.4452C129.297 51.6465 130.29 52.5742 131.012 53.3479Z" fill="#433735"/>
<path d="M103.937 131.656C103.788 133.103 104.012 134.63 104.091 136.078C104.137 136.91 104.183 137.742 104.178 138.549C104.178 139.027 104.037 139.61 104.199 140.059C104.199 140.105 104.286 140.138 104.324 140.092C104.963 139.314 104.602 137.455 104.569 136.515C104.519 134.896 104.44 133.274 104.378 131.656C104.378 131.596 104.354 131.539 104.312 131.497C104.27 131.455 104.213 131.431 104.153 131.431C104.094 131.431 104.037 131.455 103.995 131.497C103.953 131.539 103.929 131.596 103.929 131.656H103.937Z" fill="#9B8580"/>
<path d="M108.054 128.802C106.517 132.296 105.666 135.874 103.56 139.119C103.439 139.302 103.738 139.476 103.854 139.289C105.715 136.377 107.742 132.338 108.233 128.889C108.233 128.794 108.104 128.706 108.058 128.814L108.054 128.802Z" fill="#9B8580"/>
<path d="M74.275 179.491L75.222 147.514L82.1631 179.491H102.068C100.743 168.854 94.8739 124.384 88.7428 120.619L64.6505 105.597C64.6505 105.597 50.7102 109.237 51.0134 129.418C52.1267 148.857 54.4985 171.729 55.3376 179.491H74.275Z" fill="#2D2442"/>
<path d="M138.539 168.505C138.024 169.291 135.39 168.7 134.614 168.775C133.924 168.891 133.245 169.06 132.582 169.283C130.431 169.844 128.013 169.549 126.09 170.647C126.062 170.668 126.031 170.683 125.997 170.692C125.964 170.7 125.929 170.702 125.895 170.697C125.82 170.676 125.787 170.593 125.762 170.523C124.516 167.095 123.56 163.517 122.476 160.023L117.591 144.269L115.062 136.132L109.163 108.705L111.792 89.3734L112.416 84.7974L112.461 84.4521L112.827 84.5811C114.624 85.2281 116.385 85.9711 118.102 86.8067C121.841 88.6413 126.19 91.3827 126.78 94.5027V94.536C127.091 96.72 127.444 98.8957 127.785 101.076C128.391 104.939 129.005 108.801 129.625 112.661C130.392 117.467 131.162 122.272 131.934 127.076C132.74 132.081 133.546 137.087 134.352 142.093C135.072 146.561 135.793 151.027 136.516 155.492L138.061 165.06L138.477 167.706C138.548 167.921 138.585 168.146 138.585 168.372C138.576 168.418 138.56 168.463 138.539 168.505Z" fill="#EED9CE"/>
<path d="M112.457 84.448L112.411 84.7933L111.788 89.3693L109.159 108.701L96.2821 116.634C95.6091 117.05 95.0359 119.895 94.7576 120.611C93.8687 122.928 93.0961 125.337 92.0784 127.6C91.8707 128.066 91.6837 129.326 91.2227 129.609C90.2964 130.179 86.5247 129.397 85.3616 129.322C81.0541 129.043 76.6967 128.411 72.7547 126.551C69.6393 125.079 66.877 122.999 63.9444 121.214C62.1499 120.124 60.1519 119.442 58.2577 118.564C56.9908 117.978 54.2534 116.854 53.7633 115.361C53.6861 114.91 53.7891 114.447 54.0499 114.071C54.9554 112.316 55.5578 110.198 56.6253 108.568C57.6098 107.066 58.8268 105.71 59.7864 104.166C61.7221 101.067 63.4293 97.7933 65.8468 95.0144C69.9633 90.3053 73.4193 84.9264 77.6562 80.2339C79.5379 78.1539 85.4031 76.1654 88.207 76.049C90.6355 75.9795 93.06 76.2897 95.3931 76.9683C96.933 77.411 98.438 77.9672 99.8959 78.6323C100.884 79.0711 101.844 79.5712 102.77 80.1299L112.457 84.448Z" fill="#EED9CE"/>
<path d="M117.209 110.186C118.563 109.354 124.89 105.306 125.459 103.846C125.72 103.168 127.158 101.08 128.396 99.1204C129.333 97.7501 130.356 96.4399 131.457 95.1975C132.263 94.3655 133.422 92.2855 134.124 92.9719C134.996 93.8039 133.634 95.9421 132.878 97.2442C132.566 97.7037 132.328 98.209 132.171 98.7418C132.097 98.9768 132.079 99.226 132.118 99.4694C132.156 99.7128 132.252 99.9437 132.396 100.144C132.57 100.393 133.75 100.51 134.149 100.493C137.135 100.36 138.431 100.539 140.662 99.7069C142.892 98.8749 144.974 97.7018 147.075 96.5869C147.437 96.3956 147.653 96.0045 148.467 95.9296C148.882 95.8922 149.713 95.9296 149.684 96.3456C149.647 96.6618 147.138 98.6253 146.88 98.8084L144.238 100.672C144.003 100.8 143.824 101.01 143.736 101.263C143.73 101.485 143.748 101.706 143.79 101.924C143.747 102.324 143.554 102.693 143.25 102.956C142.774 103.465 142.269 103.947 141.738 104.399C140.998 105.036 141.601 105.577 140.795 106.134C139.906 106.75 137.605 107.382 136.691 107.948C135.976 108.433 135.218 108.85 134.427 109.196C133.452 109.538 132.448 109.792 131.428 109.957C128.657 110.531 123.806 115.561 121.459 117.221" fill="#FE8E68"/>
<path d="M133.123 109.612C135.275 109.314 137.378 108.732 139.378 107.881C142.149 106.592 148.999 102.357 148.999 102.357C149.052 102.224 149.059 102.078 149.019 101.941C148.949 101.774 147.906 101.525 147.067 101.903L140.861 104.599" fill="#FE8E68"/>
<path d="M132.433 108.439C132.433 108.439 136.849 107.515 139.619 106.226C142.39 104.936 149.24 100.701 149.24 100.701C149.293 100.569 149.3 100.422 149.26 100.285C149.186 100.119 148.147 99.8691 147.308 100.248L141.102 102.943" fill="#FE8E68"/>
<path d="M133.829 105.897C133.829 105.897 138.244 104.973 141.015 103.684C143.785 102.394 148.076 100.189 150.527 98.5213C150.605 98.4112 150.658 98.2847 150.68 98.1514C150.702 98.018 150.694 97.8814 150.656 97.7517C150.581 97.5853 149.543 97.3357 148.704 97.7184L142.498 100.414" fill="#FE8E68"/>
<path d="M117.454 79.4185C117.454 79.4185 128.138 85.9414 130.634 72.7625C131.241 67.3004 131.997 58.423 127.452 54.9535C122.908 51.4841 112.453 51.0847 112.224 61.3849C112.64 64.3427 112.507 64.5715 112.507 64.5715C112.507 64.5715 108.586 63.4899 109.437 68.382C109.89 70.5993 110.48 71.398 110.48 71.398L102.45 77.6962C101.711 78.2745 101.092 79.2396 100.07 78.7737C99.9631 78.7133 99.8486 78.6672 99.7296 78.6364C99.6694 78.6221 99.6062 78.6264 99.5484 78.6486C99.4905 78.6709 99.4408 78.7101 99.4056 78.7612C99.3754 78.8335 99.3626 78.9119 99.3683 78.99C99.325 79.3809 99.2343 79.7651 99.0983 80.134C98.6829 81.5858 99.0983 82.9462 99.8792 84.2025C100.53 85.2759 101.446 86.164 102.538 86.7817C103.599 87.3363 104.744 87.7116 105.927 87.8924C107.413 88.2173 108.953 88.2045 110.434 87.855C111.263 87.6865 112.012 87.2476 112.565 86.607C112.686 86.4735 112.789 86.3253 112.872 86.166C113.025 85.7877 113.088 85.3789 113.055 84.9721C113.061 84.9148 113.046 84.8572 113.014 84.8098C112.968 84.7712 112.911 84.7492 112.852 84.7474C112.199 84.6393 112.631 84.294 112.901 84.0111L113.732 83.1791C114.305 82.5912 114.884 82.0074 115.469 81.4278C116.128 80.7428 116.789 80.073 117.454 79.4185Z" fill="#FE8E68"/>
<path d="M125.409 68.5235C125.824 68.5235 126.161 67.8567 126.161 67.0342C126.161 66.2117 125.824 65.5449 125.409 65.5449C124.994 65.5449 124.657 66.2117 124.657 67.0342C124.657 67.8567 124.994 68.5235 125.409 68.5235Z" fill="#56211A"/>
<path d="M127.041 61.9092C125.413 61.3101 122.601 61.9549 121.571 63.4068C121.556 63.4319 121.55 63.4607 121.552 63.4896C121.554 63.5184 121.565 63.546 121.582 63.5688C121.6 63.5915 121.625 63.6085 121.652 63.6174C121.679 63.6263 121.709 63.6269 121.737 63.6189C122.568 63.2944 123.24 62.7869 124.109 62.5249C125.081 62.2503 126.007 62.3252 126.991 62.2794C127.037 62.2781 127.08 62.2607 127.114 62.2302C127.147 62.1998 127.169 62.1584 127.175 62.1134C127.181 62.0684 127.171 62.0227 127.146 61.9846C127.122 61.9464 127.085 61.9182 127.041 61.905V61.9092Z" fill="#433735"/>
<path d="M131.037 65.674C130.792 66.4644 131.037 67.3671 131.357 68.1325C131.707 68.8837 132.144 69.5915 132.657 70.2416L133.318 71.1444C132.63 71.3692 131.96 71.6474 131.315 71.9764C130.929 72.176 130.514 72.4464 130.435 72.8749" fill="#FE8E68"/>
<path d="M126.119 73.6861C126.58 73.8455 127.072 73.8981 127.556 73.84C127.58 73.8331 127.604 73.8317 127.628 73.8361C127.652 73.8404 127.674 73.8503 127.693 73.865C127.713 73.8901 127.723 73.9208 127.722 73.9524C127.712 74.4325 127.584 74.9026 127.349 75.321C127.228 75.6199 127.066 75.9001 126.867 76.153C126.422 76.6605 125.43 76.985 124.79 76.673C124.512 76.5185 124.284 76.2876 124.134 76.0074C123.689 75.2711 123.378 74.0231 123.756 73.1911C124.009 72.6337 124.071 72.8417 124.561 73.0663C125.052 73.2909 125.484 73.4407 125.94 73.6279L126.119 73.6861Z" fill="#FFFBF9"/>
<path d="M117.836 107.873C110.044 111.496 97.8978 118.04 97.8978 118.04L96.1573 105.444L77.8223 105.593C77.8223 105.593 83.1267 134.88 87.2183 137.625C87.2183 137.625 92.0658 141.265 99.9456 135.803C105.146 132.197 117.242 122.72 123.186 117.537L117.836 107.873Z" fill="#EED9CE"/>
<path d="M83.3928 129.097C83.2723 127.084 82.3211 124.9 81.8102 122.953C81.0833 120.191 80.3563 117.428 79.6751 114.633C78.429 109.616 77.403 104.574 76.3105 99.5321C76.2773 99.3865 76.0322 99.4156 76.0446 99.5696C76.46 104.599 77.7768 109.628 78.9856 114.508C79.6502 117.2 80.3356 119.891 81.0874 122.558C81.669 124.638 82.0802 127.288 83.1934 129.131C83.2057 129.15 83.224 129.165 83.2455 129.174C83.2671 129.182 83.2908 129.183 83.3131 129.177C83.3354 129.171 83.3552 129.158 83.3696 129.14C83.3839 129.122 83.3921 129.1 83.3928 129.076V129.097Z" fill="#DBC4BD"/>
<path d="M122.75 116.863C118.946 119.359 115.552 122.687 112.432 125.981C112.158 126.273 112.594 126.709 112.868 126.418C116.042 123.069 119.548 120.236 123.07 117.266C123.303 117.071 123 116.68 122.746 116.85L122.75 116.863Z" fill="#DBC4BD"/>
<path d="M110.031 111.904C111.277 111.713 112.552 111.072 113.686 110.51C114.675 110.024 115.979 109.562 116.632 108.643C116.748 108.476 116.557 108.314 116.399 108.339C115.323 108.501 114.28 109.379 113.313 109.866C112.187 110.431 110.937 110.847 109.873 111.53C109.833 111.557 109.804 111.598 109.79 111.645C109.776 111.692 109.779 111.742 109.798 111.787C109.817 111.832 109.851 111.869 109.894 111.892C109.938 111.915 109.987 111.922 110.035 111.912L110.031 111.904Z" fill="#DBC4BD"/>
<path d="M99.5966 78.4369C98.1884 76.9892 96.8093 79.5684 96.3857 80.7457C95.2558 83.8948 95.9287 87.6513 96.8467 90.7588C97.96 94.5444 99.825 98.0097 100.822 101.841C101.956 106.209 102.791 110.577 102.621 115.111C102.621 115.39 103.036 115.386 103.036 115.111C103.422 109.204 102.006 102.602 99.8043 97.1361C98.6952 94.378 97.4449 91.7281 96.7886 88.8161C96.3907 87.1662 96.2133 85.4708 96.261 83.7742C96.2901 83.1127 97.42 76.8228 99.285 78.7364C99.472 78.9278 99.7669 78.6324 99.58 78.441L99.5966 78.4369Z" fill="#9B8580"/>
<path d="M113.629 83.8739L114.696 85.6544L114.908 86.8442C114.941 87.2817 114.941 87.7212 114.908 88.1587C114.829 89.3443 114.538 90.5091 114.343 91.6823C113.973 93.9411 113.687 96.2125 113.3 98.4714C112.587 102.825 111.537 107.118 110.16 111.309C110.081 111.542 110.443 111.638 110.522 111.409C112.482 105.81 113.55 99.9939 114.426 94.1367C114.842 91.4243 117.139 84.9555 113.492 83.5494C113.346 83.4912 113.205 83.6618 113.242 83.7991L113.276 83.9197C113.288 83.9611 113.316 83.9966 113.352 84.0199C113.389 84.0431 113.432 84.0526 113.475 84.0466C113.518 84.0406 113.558 84.0195 113.586 83.9871C113.615 83.9547 113.632 83.9132 113.633 83.8698L113.629 83.8739Z" fill="#9B8580"/>
<path d="M108.573 137.442C108.571 137.252 108.495 137.07 108.36 136.936C108.226 136.801 108.045 136.725 107.855 136.723L99.9956 137.251C99.8063 137.255 99.626 137.332 99.4921 137.466C99.3582 137.6 99.2812 137.781 99.277 137.971C99.1648 142.01 99.3766 146.099 99.1648 150.13C99.1659 150.321 99.2419 150.503 99.3765 150.638C99.511 150.773 99.6932 150.849 99.8834 150.85C102.467 150.654 105.051 150.48 107.63 150.259H107.689C107.764 150.268 107.841 150.262 107.914 150.241C107.988 150.22 108.056 150.184 108.115 150.136C108.175 150.088 108.224 150.028 108.26 149.961C108.295 149.894 108.317 149.819 108.324 149.743C108.943 145.762 108.544 141.44 108.573 137.442Z" fill="#D6CED7"/>
<path d="M109.072 66.7056C107.896 66.8637 106.995 67.1465 106.164 66.0649C105.819 65.6489 105.545 65.1789 105.009 64.975C104.938 64.9501 104.884 65.0499 104.938 65.0957C105.603 65.703 106.081 66.7596 106.957 67.0841C107.321 67.1897 107.702 67.2224 108.078 67.1803C108.455 67.1381 108.819 67.0221 109.15 66.8387C109.234 66.7971 109.15 66.6931 109.092 66.7014L109.072 66.7056Z" fill="#594C4A"/>
<path d="M125.222 70.8073C127.229 70.8073 128.856 69.1777 128.856 67.1673C128.856 65.157 127.229 63.5273 125.222 63.5273C123.214 63.5273 121.587 65.157 121.587 67.1673C121.587 69.1777 123.214 70.8073 125.222 70.8073Z" stroke="#F9F9F9" stroke-width="1.09" stroke-miterlimit="10"/>
<path d="M128.968 66.2105C129.101 66.1315 129.16 66.0067 129.28 65.9069C129.461 65.7645 129.676 65.6714 129.903 65.6365C130.109 65.5913 130.323 65.6043 130.522 65.6739C130.705 65.7446 130.75 65.9193 130.917 65.9901C130.937 66.0009 130.961 66.0034 130.983 65.9973C131.006 65.9911 131.025 65.9766 131.037 65.9568L131.079 65.9027C131.093 65.878 131.1 65.8501 131.1 65.8216C131.1 65.7931 131.093 65.7651 131.079 65.7405C130.867 65.2829 130.248 65.2454 129.832 65.3245C129.463 65.4035 128.798 65.6864 128.869 66.1565C128.872 66.1681 128.878 66.1787 128.886 66.1877C128.894 66.1966 128.904 66.2035 128.916 66.208C128.927 66.2124 128.939 66.2142 128.951 66.2132C128.963 66.2122 128.975 66.2084 128.985 66.2022L128.968 66.2105Z" fill="#F9F9F9"/>
<path d="M109.022 60.6403C110.879 61.9799 122.489 60.3367 126.24 58.6144C133.858 55.1159 134.605 48.9549 132.823 47.7984C132.612 47.6518 132.371 47.555 132.117 47.5155C131.519 47.4448 130.971 47.8151 130.485 48.1687C130.676 47.4698 131.37 44.4247 129.521 43.2307C127.029 41.6125 123.913 44.3498 123.402 44.6909C119.859 47.0663 117.944 47.4698 117.944 47.4698C117.944 47.4698 118.567 41.4835 113.674 46.0803C112.133 47.528 109.271 48.88 107.734 50.336C106.123 51.8627 105.205 54.3546 106.135 56.4845" fill="#433735"/>
<path d="M114.463 57.0128C115.527 57.8781 116 59.2633 116.308 60.6028C116.769 62.6163 116.952 64.7628 116.308 66.7181C116.125 67.2755 116.353 69.8547 115.917 69.7798C115.78 69.759 115.473 67.783 114.954 66.7763C114.144 65.2163 111.572 65.0041 110.638 66.2272C109.479 67.7414 110.222 68.8105 110.737 70.3206C111.12 71.4438 110.737 72.854 109.371 73.2326C108.091 73.5945 108.461 72.6252 107.95 71.7184C106.854 69.7632 105.707 68.0534 104.972 65.8944C103.813 62.4624 102.858 57.254 106.442 54.8787C107.34 54.2838 110.297 53.56 111.294 53.9593" fill="#433735"/>
<path d="M125.675 68.1242C125.856 68.1242 126.003 67.9323 126.003 67.6957C126.003 67.459 125.856 67.2672 125.675 67.2672C125.493 67.2672 125.346 67.459 125.346 67.6957C125.346 67.9323 125.493 68.1242 125.675 68.1242Z" fill="white"/>
<path d="M113.591 64.6713C114.127 65.728 115.369 65.9193 116.424 66.2022C117.965 66.6211 119.551 66.8488 121.147 66.8803C121.421 66.8803 121.404 66.4976 121.147 66.4643C119.797 66.2937 118.455 66.1772 117.126 65.886C116.029 65.6489 114.538 65.4368 113.803 64.5174C113.707 64.4009 113.541 64.5507 113.603 64.6713H113.591Z" fill="#F9F9F9"/>
<path d="M115.273 76.7978C115.833 77.9387 116.726 78.8829 117.832 79.5059C117.843 79.5142 117.856 79.518 117.869 79.5164C117.882 79.5149 117.894 79.5081 117.903 79.4976C117.911 79.4871 117.915 79.4738 117.913 79.4605C117.912 79.4473 117.905 79.4352 117.894 79.4269C116.999 78.5861 116.166 77.6809 115.402 76.7187C115.391 76.7005 115.373 76.6874 115.353 76.6824C115.332 76.6773 115.31 76.6806 115.292 76.6917C115.274 76.7027 115.261 76.7205 115.256 76.7412C115.251 76.7619 115.254 76.7837 115.265 76.8019L115.273 76.7978Z" fill="#CC6144"/>
<path d="M137.056 63.9601C137.602 63.6523 138.104 63.2716 138.547 62.8285C138.576 62.7953 138.547 62.7245 138.498 62.7453C137.933 63.0071 137.406 63.3443 136.931 63.7479C136.807 63.8394 136.932 64.0474 137.056 63.9601Z" fill="#433735"/>
<path d="M137.808 65.4077C138.234 65.3452 138.646 65.2042 139.021 64.9917C139.04 64.9793 139.056 64.961 139.064 64.9395C139.072 64.9179 139.074 64.8942 139.068 64.8718C139.062 64.8495 139.049 64.8296 139.03 64.8153C139.012 64.8009 138.99 64.7927 138.967 64.792C138.537 64.8111 138.115 64.9098 137.721 65.0832C137.681 65.0965 137.649 65.1244 137.63 65.1611C137.61 65.1979 137.606 65.2406 137.617 65.2806C137.628 65.3205 137.654 65.3547 137.69 65.376C137.725 65.3973 137.768 65.4042 137.808 65.3952V65.4077Z" fill="#433735"/>
<path d="M137.949 67.1923C138.19 67.1237 138.436 67.0736 138.685 67.0426C138.889 67.032 139.093 67.0098 139.295 66.976C139.307 66.9697 139.318 66.9602 139.325 66.9484C139.332 66.9367 139.336 66.9232 139.336 66.9095C139.336 66.8957 139.332 66.8822 139.325 66.8705C139.318 66.8587 139.307 66.8492 139.295 66.8429C138.825 66.6738 138.307 66.6977 137.854 66.9095C137.683 66.9802 137.746 67.2464 137.933 67.1923H137.949Z" fill="#433735"/>
<path d="M61.1073 120.444C60.0481 120.411 60.0938 122.067 59.9941 122.774C59.8612 123.735 59.5787 124.975 60.4095 125.686C60.4385 125.715 60.4753 125.734 60.5152 125.742C60.5551 125.749 60.5964 125.745 60.634 125.73C60.6716 125.714 60.7038 125.688 60.7266 125.654C60.7495 125.621 60.762 125.581 60.7626 125.54V125.407C60.7626 125.303 60.6546 125.27 60.5798 125.303L60.4386 125.366L60.721 125.441C60.235 124.7 60.3056 123.985 60.3929 123.148C60.4801 122.312 60.4386 121.189 61.1572 120.615C61.2319 120.553 61.1572 120.436 61.0824 120.436L61.1073 120.444Z" fill="black"/>
<path d="M62.3077 121.256C61.6473 122.346 61.477 124.372 62.0253 125.532C62.0876 125.669 62.287 125.59 62.2911 125.461C62.3202 124.763 62.1499 124.076 62.1914 123.381C62.233 122.687 62.4365 122.017 62.4988 121.322C62.4988 121.214 62.3576 121.189 62.3036 121.268L62.3077 121.256Z" fill="black"/>
<path d="M82.7737 130.058C82.6447 130.496 82.4893 130.925 82.3085 131.344C82.134 131.722 81.8682 132.055 81.702 132.434C81.6843 132.471 81.6799 132.513 81.6896 132.553C81.6992 132.593 81.7223 132.628 81.755 132.653C81.7877 132.678 81.8279 132.691 81.869 132.69C81.91 132.688 81.9493 132.673 81.9803 132.646C82.6283 132.063 82.9856 130.936 83.0479 130.092C83.0479 129.929 82.8236 129.913 82.7779 130.054L82.7737 130.058Z" fill="black"/>
<path d="M83.6959 131.539C83.5509 131.994 83.3602 132.433 83.1268 132.85C83.0354 133.037 83.2888 133.266 83.4342 133.087C83.752 132.644 83.9339 132.117 83.9576 131.572C83.9576 131.418 83.7374 131.394 83.6959 131.539Z" fill="black"/>
<path d="M52.2347 120.386C53.5473 121.177 54.918 121.842 56.2224 122.666C57.3605 123.382 58.5568 124.055 59.911 124.234C60.1104 124.259 60.1519 123.926 59.9567 123.885C58.3865 123.54 57.0988 122.782 55.7613 121.926C54.7311 121.264 53.5265 120.361 52.2679 120.262C52.254 120.261 52.2403 120.265 52.229 120.273C52.2178 120.282 52.2096 120.293 52.2058 120.307C52.2019 120.32 52.2027 120.334 52.2079 120.347C52.2132 120.36 52.2226 120.371 52.2347 120.378V120.386Z" fill="black"/>
<path d="M62.1582 124.505C65.4813 126.227 68.6008 128.353 71.9987 129.913C73.551 130.609 75.1772 131.127 76.8462 131.456C78.433 131.78 80.3105 132.221 81.9263 132.047C82.0925 132.047 82.1506 131.785 81.9679 131.739C80.2399 131.323 78.3623 131.323 76.6053 130.957C74.8473 130.579 73.1415 129.99 71.5251 129.201C68.3848 127.662 65.5311 125.49 62.2579 124.209C62.1 124.151 61.9962 124.401 62.1457 124.48L62.1582 124.505Z" fill="black"/>
<path d="M77.191 148.162C77.7026 147.543 78.2579 146.96 78.8525 146.419C79.1973 146.12 80.9626 144.552 81.5026 145.076C81.5143 145.087 81.5291 145.094 81.5451 145.096C81.5611 145.098 81.5772 145.095 81.5912 145.087C81.6052 145.079 81.6163 145.067 81.6228 145.052C81.6293 145.037 81.6308 145.021 81.6273 145.005C81.3573 144.173 80.1776 145.034 79.783 145.292C78.6749 145.999 77.7405 146.948 77.0497 148.067C77.004 148.146 77.1162 148.237 77.1785 148.167L77.191 148.162Z" fill="black"/>
<path d="M73.2407 147.68C71.6323 146.021 69.4673 145.018 67.1636 144.864C67.1482 144.864 67.1334 144.87 67.1225 144.881C67.1116 144.892 67.1055 144.907 67.1055 144.922C67.1055 144.937 67.1116 144.952 67.1225 144.963C67.1334 144.974 67.1482 144.98 67.1636 144.98C69.3511 145.409 71.3887 146.403 73.0745 147.863C73.195 147.971 73.3736 147.801 73.2532 147.684L73.2407 147.68Z" fill="black"/>
<path d="M77.0288 149.223C79.0102 149.922 80.5637 151.158 81.0206 153.308L81.3197 153.08C80.8115 152.753 80.3621 152.342 79.9905 151.865C79.7582 151.483 79.5015 151.116 79.222 150.767C79.0595 150.598 78.8451 150.488 78.6131 150.456C78.3812 150.424 78.1451 150.47 77.9426 150.588C77.9177 150.588 77.9426 150.646 77.9426 150.634C78.8398 150.301 79.3508 151.694 79.7745 152.214C80.1614 152.674 80.6053 153.082 81.0954 153.429C81.2491 153.546 81.4235 153.354 81.3945 153.2C80.9791 151.158 79.2262 149.123 77.0412 148.999C76.9042 148.999 76.8958 149.182 77.0121 149.223H77.0288Z" fill="black"/>
<path d="M51.9979 133.902C54.025 132.654 55.8776 131.107 56.9825 128.952C57.1196 128.686 56.7167 128.448 56.5671 128.715C55.4913 130.795 53.7093 132.28 51.7446 133.499C51.4912 133.657 51.7238 134.06 51.9813 133.915L51.9979 133.902Z" fill="black"/>
<path d="M76.2356 131.543C76.3768 133.623 76.6842 135.703 76.6509 137.808C76.5936 140.024 76.3153 142.229 75.8202 144.389C75.7745 144.593 76.0902 144.685 76.1359 144.477C76.624 142.352 76.9023 140.184 76.9666 138.004C77.0206 135.878 76.9666 133.582 76.4059 131.518C76.381 131.423 76.2231 131.439 76.2314 131.543H76.2356Z" fill="black"/>
<path d="M75.8575 145.305C75.6934 145.666 75.5909 146.053 75.5543 146.449C75.4404 146.784 75.4104 147.143 75.4671 147.493C75.4729 147.506 75.4825 147.518 75.4947 147.526C75.5068 147.534 75.5211 147.538 75.5356 147.538C75.5502 147.538 75.5644 147.534 75.5766 147.526C75.5888 147.518 75.5983 147.506 75.6042 147.493C75.7611 147.16 75.8488 146.8 75.8617 146.432C75.9655 146.075 76.0241 145.706 76.0362 145.334C76.0346 145.314 76.0269 145.295 76.0142 145.28C76.0014 145.265 75.9843 145.254 75.9651 145.249C75.946 145.244 75.9257 145.245 75.9072 145.252C75.8887 145.259 75.8728 145.272 75.8617 145.288L75.8575 145.305Z" fill="black"/>
<path d="M79.1889 131.768C79.1308 133.432 79.1889 135.096 79.2138 136.76C79.2138 138.312 79.3717 139.917 79.2138 141.461C78.9563 144.007 76.4848 145.3 75.5585 147.534C75.4962 147.684 75.7537 147.792 75.8202 147.647C76.7922 145.492 79.1806 144.285 79.5586 141.823C79.7954 140.313 79.6085 138.69 79.5835 137.168C79.5545 135.371 79.5835 133.561 79.4672 131.76C79.4672 131.721 79.4519 131.684 79.4246 131.657C79.3974 131.629 79.3604 131.614 79.3218 131.614C79.2833 131.614 79.2463 131.629 79.219 131.657C79.1918 131.684 79.1765 131.721 79.1765 131.76L79.1889 131.768Z" fill="black"/>
<path d="M97.9934 83.8739C97.9602 86.9772 101.221 88.9366 104.008 89.2111C104.228 89.2319 104.241 88.9116 104.058 88.8451C102.75 88.3625 101.424 88.1129 100.266 87.2726C99.704 86.8812 99.2295 86.3775 98.872 85.7932C98.5145 85.209 98.2819 84.5569 98.1886 83.878C98.1886 83.8516 98.1781 83.8262 98.1594 83.8074C98.1408 83.7887 98.1154 83.7782 98.089 83.7782C98.0625 83.7782 98.0372 83.7887 98.0185 83.8074C97.9998 83.8262 97.9893 83.8516 97.9893 83.878L97.9934 83.8739Z" fill="#C1ADA4"/>
<path d="M105.753 89.1904C106.19 89.2674 106.634 89.2995 107.078 89.2861C107.521 89.3229 107.967 89.2792 108.395 89.1571C108.417 89.1507 108.437 89.137 108.451 89.1183C108.465 89.0995 108.473 89.0766 108.473 89.0531C108.473 89.0296 108.465 89.0068 108.451 88.988C108.437 88.9692 108.417 88.9556 108.395 88.9491C107.967 88.827 107.521 88.7833 107.078 88.8202C106.634 88.8068 106.19 88.8389 105.753 88.9158C105.725 88.9257 105.702 88.9438 105.685 88.9676C105.668 88.9914 105.659 89.0198 105.659 89.049C105.659 89.0781 105.668 89.1065 105.685 89.1304C105.702 89.1542 105.725 89.1722 105.753 89.1821V89.1904Z" fill="#C1ADA4"/>
<path d="M76.0445 100.435C75.9962 99.6855 75.7045 98.9726 75.2137 98.4048C74.7983 97.9514 73.9676 97.2816 73.3445 97.4439C73.3174 97.4516 73.2928 97.4663 73.273 97.4864C73.2533 97.5066 73.2392 97.5316 73.2321 97.5589C73.2249 97.5862 73.2251 97.6149 73.2324 97.6421C73.2397 97.6694 73.254 97.6942 73.2739 97.7143C73.502 97.8615 73.7495 97.9763 74.0091 98.0554C74.3218 98.207 74.609 98.4063 74.8606 98.6461C75.3846 99.1229 75.7414 99.7559 75.8783 100.452C75.8783 100.547 76.057 100.526 76.0486 100.427L76.0445 100.435Z" fill="#C1ADA4"/>
<path d="M114.231 69.5967C114.571 68.4819 113.437 66.2313 112.075 66.7097C111.66 66.8511 111.93 67.0425 112.241 66.9593C112.553 66.8761 113.217 67.9743 113.317 68.1657C113.57 68.6483 113.612 69.2015 113.857 69.6758C113.907 69.7756 114.202 69.6758 114.231 69.5967Z" fill="#CC6144"/>
<path d="M113.4 67.9869C113.395 67.9045 113.373 67.8241 113.334 67.7512C113.295 67.6784 113.242 67.6147 113.176 67.5645C113.111 67.5144 113.035 67.479 112.955 67.4607C112.874 67.4424 112.791 67.4417 112.71 67.4586C112.52 67.4755 112.338 67.543 112.183 67.6541C112.096 67.7206 111.975 67.8704 112.071 67.9702C112.166 68.0701 112.266 67.9702 112.312 67.9328C112.449 67.8371 112.519 67.679 112.677 67.7498C112.75 67.784 112.814 67.8331 112.867 67.8941C112.919 67.955 112.958 68.0263 112.98 68.1034C113.018 68.224 113.396 68.1034 113.396 67.991L113.4 67.9869Z" fill="#CC6144"/>
<path d="M124.379 67.9952C124.385 68.0909 124.41 68.1844 124.453 68.2703C124.495 68.3562 124.554 68.4329 124.626 68.4959C124.699 68.5589 124.782 68.607 124.873 68.6374C124.964 68.6679 125.06 68.68 125.155 68.6733C125.155 68.6733 125.297 68.64 125.259 68.6067C125.155 68.5152 125.023 68.4569 124.915 68.3613C124.779 68.2468 124.668 68.1051 124.591 67.9453C124.566 67.887 124.37 67.9453 124.379 68.0035V67.9952Z" fill="#CC6144"/>
<path d="M95.3558 96.2666C95.5095 100.647 96.0453 105.003 96.6019 109.354C96.8885 111.584 97.0173 114.138 97.6279 116.235C97.6944 116.459 97.9976 116.359 97.9643 116.143C97.9353 115.918 97.5947 116.014 97.6279 116.235L97.9643 116.143C97.9934 116.243 97.9643 115.773 97.9643 115.665C97.927 115.22 97.8397 114.77 97.7774 114.325C97.5337 112.625 97.3025 110.924 97.0837 109.221C96.5271 104.911 96.0328 100.593 95.6299 96.2666C95.6299 96.0919 95.3475 96.0836 95.3516 96.2666H95.3558Z" fill="#C1ADA4"/>
<path d="M102.883 115.394C101.175 115.769 99.5927 116.547 98.0059 117.295C96.333 118.006 94.7214 118.853 93.1875 119.829C93.0795 119.904 93.1418 120.091 93.2789 120.049C96.6601 119.03 99.7422 117 102.961 115.594C103.078 115.544 102.991 115.373 102.878 115.398L102.883 115.394Z" fill="#C1ADA4"/>
<path d="M132.292 133.79C131.839 135.412 131.739 137.006 131.045 138.591C130.331 140.255 129.276 141.552 128.138 142.959C128.106 142.991 128.088 143.034 128.088 143.079C128.088 143.124 128.106 143.168 128.138 143.2C128.17 143.232 128.213 143.25 128.258 143.25C128.303 143.25 128.347 143.232 128.379 143.2C129.745 142.077 130.755 140.375 131.444 138.765C132.071 137.305 132.715 135.404 132.458 133.773C132.458 133.665 132.283 133.682 132.254 133.773L132.292 133.79Z" fill="#C1ADA4"/>
<path d="M59.8155 118.997C59.3996 117.685 59.1594 116.324 59.1011 114.949C59.072 113.539 59.4375 112.249 59.6535 110.877C59.6785 110.706 59.4458 110.569 59.3503 110.748C58.0626 113.173 58.4074 116.709 59.5538 119.105C59.6245 119.251 59.8571 119.147 59.8114 118.997H59.8155Z" fill="#C1ADA4"/>
<path d="M63.5539 120.811C63.234 119.979 62.8726 119.147 62.6359 118.315C62.5486 117.99 62.1706 116.963 62.3659 116.721C63.1302 116.366 63.5455 116.537 63.612 117.233C63.6624 117.528 63.6833 117.828 63.6743 118.127C63.674 118.158 63.6848 118.187 63.7046 118.21C63.7245 118.233 63.7521 118.248 63.7822 118.252C63.8123 118.256 63.8429 118.249 63.8681 118.232C63.8934 118.216 63.9116 118.19 63.9194 118.161C64.0897 117.416 63.4334 114.912 62.2579 115.835C61.7469 116.251 62.0128 117.254 62.1208 117.77C62.418 118.857 62.82 119.913 63.3212 120.923C63.3752 121.052 63.6037 120.96 63.5497 120.827L63.5539 120.811Z" fill="#C1ADA4"/>
<path d="M71.4918 125.736C70.607 124.309 70.2082 122.874 69.7555 121.281C69.7492 121.261 69.7361 121.244 69.7186 121.233C69.701 121.222 69.6802 121.218 69.6598 121.221C69.6393 121.224 69.6206 121.234 69.6069 121.249C69.5933 121.265 69.5856 121.285 69.5852 121.306C69.5187 122.945 70.3163 124.634 71.3257 125.882C71.4004 125.973 71.55 125.852 71.4918 125.753V125.736Z" fill="#C1ADA4"/>
<path d="M78.5948 128.511C79.841 128.398 81.4734 127.475 81.6728 126.115C81.6728 125.998 81.5482 125.873 81.4485 125.986C81.1133 126.466 80.7396 126.918 80.3311 127.338C79.8113 127.764 79.2066 128.075 78.5574 128.249C78.4162 128.286 78.437 128.532 78.5948 128.515V128.511Z" fill="#C1ADA4"/>
<path d="M78.6282 127.125C79.434 126.847 80.4309 126.131 80.5721 125.22C80.5721 125.112 80.4517 124.991 80.3603 125.1C80.0903 125.42 79.8951 125.79 79.5918 126.086C79.2725 126.393 78.9012 126.641 78.4952 126.818C78.3208 126.897 78.4454 127.184 78.624 127.125H78.6282Z" fill="#C1ADA4"/>
<path d="M124.1 78.5533C124.474 78.3993 124.732 78.6448 125.076 78.7404C125.114 78.7404 125.218 78.7405 125.23 78.6905C125.305 78.4118 124.927 78.3161 124.711 78.2745C124.433 78.2387 124.153 78.3101 123.926 78.4742C123.805 78.5699 124.05 78.5532 124.1 78.5324V78.5533Z" fill="#CC6144"/>
<path d="M244.4 59.9041H200.161C198.34 59.9038 196.578 60.549 195.187 61.7254C193.795 62.9018 192.865 64.5335 192.56 66.3313L188.738 88.841C188.55 89.9486 188.606 91.084 188.901 92.1679C189.197 93.2517 189.725 94.2579 190.448 95.1163C191.172 95.9747 192.074 96.6645 193.092 97.1377C194.109 97.6108 195.218 97.8559 196.34 97.8557H196.564L194.84 107.083L203.347 97.8557H240.574C242.395 97.856 244.157 97.2107 245.548 96.0343C246.94 94.858 247.87 93.2263 248.176 91.4285L251.997 68.9188C252.185 67.8115 252.129 66.6765 251.834 65.5929C251.539 64.5094 251.011 63.5034 250.288 62.645C249.565 61.7867 248.663 61.0968 247.646 60.6234C246.629 60.15 245.521 59.9045 244.4 59.9041Z" fill="#EED9CE"/>
<g opacity="0.16">
<path opacity="0.16" d="M219.016 68.3904C223.73 68.6442 228.457 68.7066 233.176 68.8064L240.154 68.9604C242.518 69.0144 244.981 69.264 247.336 69.0477C247.582 69.0269 247.685 68.6317 247.399 68.5818C245.164 68.274 242.83 68.3988 240.562 68.3447L233.38 68.1824C228.594 68.0743 223.801 67.9162 219.016 67.962C218.97 67.9749 218.931 68.0022 218.902 68.0397C218.874 68.0772 218.859 68.123 218.859 68.17C218.859 68.217 218.874 68.2627 218.902 68.3002C218.931 68.3378 218.97 68.3651 219.016 68.378V68.3904Z" fill="black"/>
</g>
<g opacity="0.16">
<path opacity="0.16" d="M217.74 74.1312C222.346 74.4086 226.955 74.5334 231.569 74.5056C233.842 74.5056 236.116 74.4599 238.389 74.3683C240.603 74.2893 242.884 74.3101 245.077 73.9523C245.389 73.9024 245.301 73.424 245.006 73.4199C242.743 73.3616 240.437 73.6237 238.186 73.7027C235.934 73.7818 233.641 73.8234 231.365 73.8317C226.821 73.8456 222.281 73.718 217.745 73.449C217.329 73.424 217.329 74.0938 217.745 74.1187L217.74 74.1312Z" fill="black"/>
</g>
<g opacity="0.16">
<path opacity="0.16" d="M217.774 78.7155C221.928 79.0941 226.119 79.5059 230.298 79.664C234.476 79.8221 238.672 79.5725 242.838 79.4269C243.386 79.4269 243.391 78.5449 242.838 78.5699C238.684 78.7321 234.476 79.0441 230.298 78.9069C226.119 78.7696 221.953 78.3203 217.774 78.1664C217.417 78.1664 217.429 78.6822 217.774 78.7155Z" fill="black"/>
</g>
<g opacity="0.16">
<path opacity="0.16" d="M196.572 82.9671C208.436 83.953 220.403 84.0154 232.296 84.1194C235.128 84.1444 237.982 84.2026 240.811 84.0778C240.907 84.0778 240.999 84.0397 241.066 83.9718C241.134 83.904 241.172 83.8119 241.172 83.7159C241.172 83.6199 241.134 83.5279 241.066 83.46C240.999 83.3921 240.907 83.354 240.811 83.354C235.315 83.225 229.812 83.354 224.316 83.2874C217.898 83.225 211.481 83.1127 205.067 82.9006C202.234 82.8049 199.397 82.7341 196.564 82.5677C196.307 82.5677 196.311 82.9463 196.564 82.9837L196.572 82.9671Z" fill="black"/>
</g>
<g opacity="0.16">
<path opacity="0.16" d="M196.061 87.0105C207.792 87.9881 219.614 88.1628 231.369 88.3126C234.169 88.35 236.989 88.4166 239.789 88.3126C239.885 88.3126 239.977 88.2745 240.045 88.2066C240.112 88.1387 240.15 88.0467 240.15 87.9507C240.15 87.8547 240.112 87.7626 240.045 87.6948C239.977 87.6269 239.885 87.5888 239.789 87.5888C234.298 87.4598 228.794 87.5472 223.298 87.464C217.018 87.3683 210.733 87.2227 204.456 86.9856C201.653 86.8816 198.849 86.7984 196.049 86.632C195.791 86.632 195.796 87.0105 196.049 87.048L196.061 87.0105Z" fill="black"/>
</g>
<g opacity="0.16">
<path opacity="0.16" d="M198.296 66.1066C197.744 68.1283 197.694 70.2166 197.686 72.3008C197.686 73.3574 197.686 74.4182 197.603 75.4749C197.52 76.5315 197.125 77.6464 197.067 78.7405C197.068 78.8239 197.096 78.9046 197.147 78.9705C197.198 79.0363 197.269 79.0837 197.35 79.1053C197.43 79.127 197.515 79.1218 197.593 79.0905C197.67 79.0591 197.735 79.0035 197.777 78.9318C198.217 78.1914 198.276 77.2429 198.375 76.3942C198.489 75.2887 198.539 74.1775 198.525 73.0662C198.525 70.8032 198.475 68.5485 199.119 66.352C199.134 66.2974 199.138 66.2403 199.131 66.1841C199.124 66.1279 199.106 66.0736 199.078 66.0243C199.05 65.9751 199.013 65.9318 198.968 65.897C198.923 65.8623 198.872 65.8366 198.818 65.8216C198.763 65.8066 198.706 65.8025 198.65 65.8095C198.594 65.8165 198.54 65.8345 198.491 65.8625C198.441 65.8906 198.398 65.928 198.363 65.9727C198.329 66.0174 198.303 66.0686 198.288 66.1232L198.296 66.1066Z" fill="black"/>
</g>
<g opacity="0.16">
<path opacity="0.16" d="M199.127 66.3894C204.465 66.4934 209.773 66.6681 215.082 67.263L214.596 66.6224C213.998 70.686 213.689 74.7869 213.67 78.8943C213.687 79.0474 213.761 79.1887 213.875 79.2912C213.99 79.3937 214.139 79.4503 214.293 79.4503C214.447 79.4503 214.595 79.3937 214.71 79.2912C214.825 79.1887 214.898 79.0474 214.916 78.8943C214.864 74.8377 215.086 70.7822 215.58 66.7555C215.618 66.4643 215.319 66.2729 215.074 66.248C209.777 65.6546 204.442 65.4877 199.119 65.7488C199.034 65.7488 198.952 65.7825 198.893 65.8426C198.833 65.9026 198.799 65.9841 198.799 66.0691C198.799 66.154 198.833 66.2355 198.893 66.2956C198.952 66.3556 199.034 66.3894 199.119 66.3894H199.127Z" fill="black"/>
</g>
<g opacity="0.16">
<path opacity="0.16" d="M197.993 79.5059C200.619 79.2025 203.265 79.1051 205.906 79.2147C207.163 79.2701 208.41 79.3714 209.645 79.5184C210.372 79.6057 211.098 79.7139 211.821 79.822C212.44 79.9136 212.905 80.0758 213.483 79.847C213.561 79.8232 213.631 79.78 213.687 79.7213C213.744 79.6626 213.784 79.5905 213.805 79.5118C213.826 79.433 213.826 79.3503 213.806 79.2714C213.786 79.1924 213.746 79.1199 213.69 79.0608C212.86 78.3078 211.314 78.366 210.222 78.2537C208.837 78.1095 207.453 78.0249 206.068 78C203.31 77.9542 200.553 78.1281 197.823 78.52C197.27 78.599 197.407 79.5683 197.956 79.5059H197.993Z" fill="black"/>
</g>
<g opacity="0.16">
<path opacity="0.16" d="M200.456 68.6399C200.257 70.7865 200.099 72.9413 200.008 75.0962C200.008 75.2066 200.052 75.3124 200.129 75.3904C200.207 75.4684 200.313 75.5122 200.423 75.5122C200.533 75.5122 200.639 75.4684 200.717 75.3904C200.795 75.3124 200.839 75.2066 200.839 75.0962C200.797 72.9372 200.839 70.7948 201.009 68.6399C201.034 68.2905 200.498 68.2946 200.465 68.6399H200.456Z" fill="black"/>
</g>
<g opacity="0.16">
<path opacity="0.16" d="M200.51 75.5039C204.71 75.7702 208.963 75.9865 213.171 75.9948C213.281 75.9948 213.387 75.951 213.465 75.873C213.543 75.7949 213.587 75.6891 213.587 75.5788C213.587 75.4685 213.543 75.3627 213.465 75.2846C213.387 75.2066 213.281 75.1628 213.171 75.1628C208.972 74.9174 204.718 74.8799 200.51 74.8882C200.429 74.8882 200.351 74.9207 200.293 74.9784C200.235 75.0361 200.203 75.1144 200.203 75.1961C200.203 75.2777 200.235 75.356 200.293 75.4138C200.351 75.4715 200.429 75.5039 200.51 75.5039Z" fill="black"/>
</g>
<g opacity="0.16">
<path opacity="0.16" d="M202.396 73.711L202.899 72.1968C203.04 71.7808 203.165 70.928 203.472 70.6035C204.328 69.7008 205.549 72.4672 205.802 72.8541C206.301 73.5946 207.19 74.1562 207.846 73.2285C208.286 72.6086 208.307 71.7683 208.635 71.0986C208.636 70.9406 208.695 70.7885 208.801 70.6711C208.907 70.5538 209.052 70.4794 209.209 70.4621L209.665 71.0445C209.902 71.3955 210.181 71.7156 210.496 71.9971C210.643 72.1239 210.822 72.2074 211.014 72.2383C211.205 72.2691 211.401 72.2461 211.58 72.1718C212.228 71.8973 212.241 70.9862 212.827 70.7117C214.139 70.1168 211.717 68.719 211.863 70.1584C211.913 70.6451 211.447 71.5021 210.891 71.2192C210.554 71.0445 210.243 70.4787 209.985 70.2C209.665 69.8506 209.254 69.3181 208.702 69.5344C208.286 69.6925 208.22 70.175 208.087 70.5286C207.896 71.0445 207.672 71.5562 207.481 72.0637C207.487 72.1582 207.473 72.2531 207.439 72.3416C207.405 72.43 207.352 72.51 207.284 72.5758C207.216 72.6416 207.134 72.6917 207.045 72.7226C206.955 72.7534 206.86 72.7642 206.766 72.7542C206.599 72.5518 206.446 72.3377 206.309 72.1136C205.757 71.3066 205.021 69.5011 203.746 69.7133C203.223 69.8006 202.982 70.1834 202.774 70.6326C202.395 71.5848 202.068 72.5569 201.794 73.5446C201.669 73.9232 202.263 74.0854 202.388 73.7069L202.396 73.711Z" fill="black"/>
</g>
<path d="M179.687 22.9716H150.548C149.348 22.9713 148.187 23.3963 147.27 24.1715C146.353 24.9466 145.739 26.0217 145.538 27.2064L143.021 42.016C142.897 42.7456 142.934 43.4935 143.128 44.2075C143.323 44.9214 143.67 45.5843 144.147 46.1499C144.623 46.7155 145.217 47.1702 145.887 47.4822C146.558 47.7942 147.288 47.9561 148.026 47.9565H148.176L145.268 52.208L152.654 47.9565H177.162C178.361 47.9558 179.521 47.5303 180.437 46.7553C181.353 45.9802 181.966 44.9056 182.167 43.7216L184.684 28.8954C184.805 28.1677 184.767 27.4224 184.572 26.7111C184.377 25.9998 184.029 25.3395 183.554 24.7759C183.078 24.2124 182.486 23.7592 181.819 23.4476C181.151 23.136 180.424 22.9736 179.687 22.9716Z" fill="#D6CED7"/>
<g opacity="0.16">
<path opacity="0.16" d="M149.8 28.1548C155.096 28.4294 160.405 28.5334 165.709 28.6748L173.56 28.887C176.223 28.9577 178.96 29.2156 181.619 29.0409C181.674 29.0409 181.727 29.019 181.766 28.98C181.804 28.941 181.826 28.8881 181.826 28.8329C181.826 28.7777 181.804 28.7248 181.766 28.6858C181.727 28.6468 181.674 28.6249 181.619 28.6249C179.039 28.3129 176.364 28.4169 173.768 28.3462L165.709 28.1215C160.409 27.9759 155.105 27.7887 149.8 27.7721C149.756 27.7788 149.716 27.8011 149.686 27.8351C149.657 27.8691 149.641 27.9124 149.641 27.9572C149.641 28.002 149.657 28.0454 149.686 28.0794C149.716 28.1133 149.756 28.1357 149.8 28.1423V28.1548Z" fill="black"/>
</g>
<g opacity="0.16">
<path opacity="0.16" d="M148.458 31.9404C153.557 32.1845 158.659 32.3398 163.765 32.4063C166.258 32.4368 168.742 32.4451 171.217 32.4313C173.826 32.4313 176.48 32.4937 179.081 32.2649C179.142 32.2649 179.201 32.2403 179.245 32.1966C179.289 32.153 179.313 32.0937 179.313 32.0319C179.313 31.9701 179.289 31.9109 179.245 31.8672C179.201 31.8235 179.142 31.799 179.081 31.799C176.538 31.695 173.971 31.8489 171.425 31.8655C168.879 31.8822 166.32 31.8655 163.769 31.8406C158.666 31.7768 153.563 31.6201 148.463 31.3705C148.093 31.3705 148.093 31.9279 148.463 31.9446L148.458 31.9404Z" fill="black"/>
</g>
<g opacity="0.16">
<path opacity="0.16" d="M147.648 35.36C157.567 36.0851 167.519 36.2518 177.456 35.8592C177.818 35.8592 177.822 35.2809 177.456 35.2934C167.508 35.6595 157.589 35.4723 147.648 34.998C147.416 34.998 147.42 35.3392 147.648 35.36Z" fill="black"/>
</g>
<g opacity="0.16">
<path opacity="0.16" d="M146.855 39.0499C153.691 39.7177 160.562 39.9636 167.429 39.7863C167.492 39.7863 167.553 39.7611 167.598 39.7162C167.643 39.6713 167.668 39.6105 167.668 39.5471C167.668 39.4836 167.643 39.4228 167.598 39.3779C167.553 39.3331 167.492 39.3079 167.429 39.3079C160.563 39.1955 153.721 39.1539 146.855 38.7837C146.685 38.7837 146.689 39.0333 146.855 39.0458V39.0499Z" fill="black"/>
</g>
<path d="M75.9947 31.2708H36.1178C34.4747 31.269 32.8841 31.8501 31.628 32.9108C30.3719 33.9716 29.5314 35.4435 29.2556 37.0656L25.8121 57.3623C25.6429 58.361 25.6933 59.3846 25.9598 60.3617C26.2262 61.3389 26.7023 62.246 27.3549 63.02C28.0074 63.7939 28.8207 64.4159 29.738 64.8427C30.6553 65.2695 31.6545 65.4907 32.6659 65.4909H66.3785L72.277 72.9124L72.5138 65.4909H72.5678C74.2094 65.4907 75.798 64.9088 77.0524 63.8482C78.3068 62.7876 79.146 61.3168 79.4216 59.6961L82.8652 39.3994C83.0346 38.3994 82.9838 37.3743 82.7164 36.396C82.449 35.4176 81.9714 34.5096 81.317 33.7354C80.6626 32.9612 79.8472 32.3395 78.9279 31.9138C78.0086 31.488 77.0075 31.2686 75.9947 31.2708Z" fill="#D6CED7"/>
<g opacity="0.29">
<path opacity="0.29" d="M50.2616 38.7671C54.9887 38.9709 59.7199 39.0541 64.4511 39.1831L71.442 39.3453C73.8305 39.3994 76.2563 39.5866 78.6406 39.466C78.6809 39.466 78.7194 39.45 78.7479 39.4215C78.7763 39.393 78.7923 39.3544 78.7923 39.3141C78.7923 39.2738 78.7763 39.2352 78.7479 39.2067C78.7194 39.1783 78.6809 39.1623 78.6406 39.1623C76.3311 38.9376 73.9676 39.0042 71.6497 38.9501L64.4511 38.7796C59.724 38.6672 54.9928 38.5258 50.2616 38.5092C50.2252 38.5092 50.1904 38.5236 50.1647 38.5494C50.139 38.5751 50.1245 38.61 50.1245 38.6464C50.1245 38.6828 50.139 38.7178 50.1647 38.7435C50.1904 38.7693 50.2252 38.7837 50.2616 38.7837V38.7671Z" fill="black"/>
</g>
<g opacity="0.29">
<path opacity="0.29" d="M49.0155 43.9088C53.5598 44.1612 58.1096 44.2902 62.665 44.2957C67.1844 44.2957 71.8326 44.3872 76.3312 43.8797C76.5472 43.8547 76.5596 43.5344 76.3312 43.5344C71.7619 43.5344 67.2218 43.8755 62.665 43.8714C58.1083 43.8672 53.5598 43.7341 49.0155 43.4803C48.7455 43.4803 48.7455 43.8963 49.0155 43.8963V43.9088Z" fill="black"/>
</g>
<g opacity="0.29">
<path opacity="0.29" d="M32.1424 48.1479C45.7206 49.0993 59.3403 49.3117 72.9415 48.7843C73.2738 48.7843 73.2738 48.256 72.9415 48.2685C59.3294 48.7594 45.7421 48.5389 32.1424 47.8192C31.9306 47.8192 31.9347 48.1312 32.1424 48.1479Z" fill="black"/>
</g>
<g opacity="0.29">
<path opacity="0.29" d="M31.0542 53.2189C40.3838 53.9885 49.8545 54.4669 59.2173 54.1799C59.2624 54.1669 59.3021 54.1396 59.3304 54.1021C59.3587 54.0646 59.374 54.0189 59.374 53.9719C59.374 53.9248 59.3587 53.8791 59.3304 53.8416C59.3021 53.804 59.2624 53.7768 59.2173 53.7639C49.813 53.6432 40.4461 53.56 31.0542 52.9984C30.9005 52.9984 30.9005 53.2272 31.0542 53.2397V53.2189Z" fill="black"/>
</g>
<g opacity="0.29">
<path opacity="0.29" d="M33.5505 36.6954C33.268 38.6506 32.8526 40.6682 32.7197 42.64C32.6408 43.8214 33.2016 44.3914 34.348 44.5827C36.3253 44.9197 38.3814 44.9987 40.3794 45.1651C41.5757 45.2733 43.7565 45.7642 44.7451 44.7741C45.227 44.2915 45.1065 43.5552 45.0733 42.9395C45.0276 42.0618 44.9279 41.1882 44.9279 40.3104C44.9279 39.208 45.2477 38.3053 45.4928 37.257C45.5719 37.0303 45.5962 36.788 45.5638 36.5501C45.5313 36.3122 45.4429 36.0854 45.3059 35.8883C44.525 34.8982 42.5685 35.2602 41.4926 35.2643C39.3036 35.2643 37.1145 35.3309 34.9296 35.3725C34.2483 35.3725 34.2774 36.4915 34.9296 36.4125C37.7852 36.04 40.6664 35.9009 43.5447 35.9965C44.1719 36.0256 44.8157 35.9965 44.7908 37.0531C44.7383 37.3218 44.6532 37.583 44.5374 37.831C44.378 38.3935 44.2874 38.9732 44.2674 39.5574C44.2505 40.1809 44.2741 40.8049 44.338 41.4253C44.392 42.0701 44.6039 42.8522 44.5166 43.5053C44.363 44.6451 43.4491 44.7533 42.4813 44.7533C41.7751 44.7533 41.0731 44.6451 40.367 44.5869C38.9297 44.4662 37.4925 44.3581 36.0553 44.2416C35.4696 44.1958 34.3522 44.3206 33.8329 44.0211C33.4201 43.6786 33.1589 43.1868 33.106 42.6525C33.136 42.158 33.2069 41.6668 33.3179 41.184C33.5173 39.7197 33.7665 38.272 33.9783 36.8035C34.0199 36.5248 33.592 36.3875 33.563 36.687L33.5505 36.6954Z" fill="black"/>
</g>
<g opacity="0.29">
<path opacity="0.29" d="M37.6962 41.3337C37.8748 40.3769 37.9579 39.4035 38.07 38.4217L37.9205 38.688C38.095 38.5715 39.7856 40.6099 39.9974 40.8262L40.147 40.2521C39.4117 40.5516 38.6723 40.8387 37.9413 41.1465C37.5259 41.3171 37.7045 41.9785 38.1282 41.8246C38.8676 41.5292 39.5945 41.2172 40.3297 40.9136C40.3831 40.8936 40.4307 40.861 40.4686 40.8183C40.5064 40.7757 40.5332 40.7245 40.5468 40.6691C40.5603 40.6137 40.5601 40.5559 40.5461 40.5006C40.5322 40.4453 40.5049 40.3943 40.4668 40.352C39.9974 39.8236 39.5239 39.3078 39.0213 38.8128C38.7388 38.534 38.311 37.9558 37.8374 38.0556C37.3639 38.1555 37.422 38.6588 37.422 39.0249C37.3473 39.7696 37.26 40.5184 37.2351 41.2672C37.2351 41.5376 37.6505 41.6083 37.7128 41.3337H37.6962Z" fill="black"/>
</g>
<path d="M209.179 120.083C209.714 120.083 210.147 119.649 210.147 119.113C210.147 118.578 209.714 118.144 209.179 118.144C208.645 118.144 208.211 118.578 208.211 119.113C208.211 119.649 208.645 120.083 209.179 120.083Z" fill="#2D2442"/>
<path d="M212.245 120.083C212.78 120.083 213.213 119.649 213.213 119.113C213.213 118.578 212.78 118.144 212.245 118.144C211.71 118.144 211.277 118.578 211.277 119.113C211.277 119.649 211.71 120.083 212.245 120.083Z" fill="#2D2442"/>
<path d="M215.306 120.083C215.841 120.083 216.274 119.649 216.274 119.113C216.274 118.578 215.841 118.144 215.306 118.144C214.772 118.144 214.338 118.578 214.338 119.113C214.338 119.649 214.772 120.083 215.306 120.083Z" fill="#2D2442"/>
<path d="M212.918 47.1452C213.452 47.1452 213.886 46.7113 213.886 46.1759C213.886 45.6406 213.452 45.2067 212.918 45.2067C212.383 45.2067 211.95 45.6406 211.95 46.1759C211.95 46.7113 212.383 47.1452 212.918 47.1452Z" fill="#2D2442"/>
<path d="M215.983 47.1452C216.518 47.1452 216.951 46.7113 216.951 46.1759C216.951 45.6406 216.518 45.2067 215.983 45.2067C215.449 45.2067 215.016 45.6406 215.016 46.1759C215.016 46.7113 215.449 47.1452 215.983 47.1452Z" fill="#2D2442"/>
<path d="M219.045 47.1452C219.579 47.1452 220.013 46.7113 220.013 46.1759C220.013 45.6406 219.579 45.2067 219.045 45.2067C218.51 45.2067 218.077 45.6406 218.077 46.1759C218.077 46.7113 218.51 47.1452 219.045 47.1452Z" fill="#2D2442"/>
<path d="M39.0296 84.3066C39.5641 84.3066 39.9975 83.8726 39.9975 83.3373C39.9975 82.802 39.5641 82.368 39.0296 82.368C38.4951 82.368 38.0618 82.802 38.0618 83.3373C38.0618 83.8726 38.4951 84.3066 39.0296 84.3066Z" fill="#2D2442"/>
<path d="M42.0909 84.3066C42.6254 84.3066 43.0587 83.8726 43.0587 83.3373C43.0587 82.802 42.6254 82.368 42.0909 82.368C41.5564 82.368 41.123 82.802 41.123 83.3373C41.123 83.8726 41.5564 84.3066 42.0909 84.3066Z" fill="#2D2442"/>
<path d="M45.1566 84.3066C45.6911 84.3066 46.1244 83.8726 46.1244 83.3373C46.1244 82.802 45.6911 82.368 45.1566 82.368C44.622 82.368 44.1887 82.802 44.1887 83.3373C44.1887 83.8726 44.622 84.3066 45.1566 84.3066Z" fill="#2D2442"/>
</svg>
