<svg width="402" height="224" viewBox="0 0 402 224" fill="none" xmlns="http://www.w3.org/2000/svg">
<path d="M364.162 173.97C359.056 185.604 349.123 190.738 339.624 192.845H60.6184C34.2818 182.977 20.2654 111.207 59.3208 93.744C80.7228 84.177 95.4651 82.516 99.6258 67.4386C117.125 4.03201 179.868 43.5792 203.091 36.9231C285.675 13.2474 273.284 129.25 324.744 118.735C348.359 113.91 379.151 139.81 364.162 173.97Z" fill="#EBF2F9"/>
<path d="M224.493 139.13C224.493 139.13 215.319 145.972 213.531 145.557C211.743 145.143 220.231 138.171 220.231 138.171C217.035 136.63 207.099 137.596 207.099 137.596C207.099 137.596 203.789 148.3 202.158 147.453C200.526 146.605 205.57 138.124 205.57 138.124C202.011 137.909 197.642 140.56 197.642 140.56C191.665 145.294 198.035 152.748 198.035 152.748C198.035 152.748 196.807 156.433 193.034 159.788C193.034 159.788 187.642 163.787 187.268 170.932L188.247 171.02C188.247 171.02 189.798 164.365 192.617 161.217C192.729 161.105 192.885 160.941 193.081 160.742C193.542 160.315 193.862 159.993 194.086 159.755C195.488 158.403 197.427 156.681 198.36 156.514C198.326 156.36 198.313 156.201 198.32 156.043L198.36 156.514C198.68 160.282 205.967 163.57 210.449 164.248C214.931 164.926 213.546 163.077 212.001 160.336C210.457 157.595 205.568 156.369 204.454 155.108C203.339 153.847 205.644 153.842 208.345 155.08C211.047 156.317 211.416 159.616 215.749 161.698C220.082 163.78 226.601 156.568 226.601 156.568C223.148 156.392 218.217 152.631 218.395 151.48C218.574 150.329 226.77 153.466 228.166 153.616C229.562 153.766 232.752 152.02 233.246 146.362C233.739 140.703 224.493 139.13 224.493 139.13Z" fill="#82B378"/>
<path d="M175.77 143.379C175.77 143.379 185.903 137.687 181.175 129.964C181.175 129.964 177.392 125.22 173.339 124.001C173.339 124.001 175.501 135.519 173.339 135.79C171.177 136.061 171.855 122.781 171.855 122.781C171.855 122.781 161.182 117.629 156.993 118.038C156.993 118.038 163.614 129.285 161.452 129.014C159.29 128.743 151.86 117.36 151.86 117.36C151.86 117.36 140.917 115.327 139.16 121.832C137.404 128.337 140.241 131.589 141.862 131.995C143.484 132.402 153.887 132.266 153.617 133.622C153.346 134.977 146.321 137.145 142.403 135.925C142.403 135.925 146.727 146.63 152.4 146.088C158.074 145.546 159.831 142.023 163.344 141.752C166.857 141.481 169.424 142.424 167.668 143.378C165.911 144.332 159.963 143.688 157.13 146.108C154.297 148.529 151.993 150.018 157.265 151.103C162.536 152.187 171.991 151.509 173.883 147.444L175.77 143.379Z" fill="#A8D29F"/>
<path d="M178.472 153.271C175.635 147.986 175.77 143.379 175.77 143.379C172.532 133.075 144.155 123.865 144.155 123.865C180.223 138.5 173.878 147.443 173.878 147.443C174.851 148.012 176.308 150.724 177.32 152.805C177.464 153.159 177.692 153.649 178.031 154.315C178.169 154.616 178.278 154.861 178.354 155.034C180.211 159.695 179.227 167.743 179.227 167.743L180.353 168.047C182.848 159.936 178.472 153.271 178.472 153.271Z" fill="#82B378"/>
<path d="M191.891 135.529C191.891 135.529 178.534 128.025 184.768 117.845C184.768 117.845 189.755 111.593 195.097 109.986C195.097 109.986 192.248 125.169 195.097 125.526C197.947 125.884 197.056 108.378 197.056 108.378C197.056 108.378 211.126 101.59 216.647 102.126C216.647 102.126 207.92 116.952 210.77 116.594C213.62 116.237 223.415 101.232 223.415 101.232C223.415 101.232 237.84 98.5533 240.156 107.127C242.472 115.7 238.731 119.988 236.594 120.524C234.457 121.061 220.744 120.882 221.1 122.668C221.456 124.454 230.717 127.313 235.881 125.704C235.881 125.704 230.186 139.816 222.705 139.102C215.223 138.387 212.909 133.743 208.28 133.39C203.65 133.037 200.265 134.286 202.585 135.533C204.904 136.781 212.736 135.943 216.476 139.132C220.216 142.321 223.243 144.284 216.298 145.715C209.354 147.147 196.886 146.252 194.393 140.893L191.891 135.529Z" fill="#A8D29F"/>
<path d="M233.565 109.807C233.565 109.807 196.166 121.954 191.891 135.529C191.891 135.529 192.07 141.603 188.329 148.569C188.329 148.569 182.561 157.353 185.85 168.047L187.334 167.647C187.334 167.647 186.038 157.038 188.485 150.893C188.586 150.669 188.73 150.342 188.912 149.946C189.359 149.069 189.659 148.423 189.849 147.957C191.182 145.214 193.104 141.639 194.385 140.888C194.384 140.888 186.013 129.099 233.565 109.807Z" fill="#82B378"/>
<path d="M169.622 134.266C169.622 134.266 191.732 127.932 197.28 133.958C202.145 139.236 215.336 160.13 216.03 172.497C216.7 184.513 204.024 192.414 190.979 192.414H167.813L169.622 134.266Z" fill="#F1A34F"/>
<path d="M154.323 140.423C154.323 140.423 185.578 126.183 191.498 135.485C194.642 140.424 203.291 160.125 203.93 172.497C204.551 184.513 192.888 192.414 180.892 192.414H159.587L154.323 140.423Z" fill="#D16E24"/>
<path d="M92.698 96.6147C92.698 96.6147 131.575 95.5585 146.41 95.5921C154.044 95.6089 153.856 101.405 157.523 108.122C164.869 121.572 177.064 144.709 176.097 148.323C174.716 153.475 122.674 157.033 118.989 155.845C115.304 154.656 92.698 96.6147 92.698 96.6147Z" fill="#E78B37"/>
<path opacity="0.4" d="M123.139 107.038C123.139 107.038 123.665 99.3855 121.824 100.045C119.982 100.705 108.272 111.393 110.114 136.598L115.509 141.216L156.688 134.354L123.139 107.038Z" fill="#C44F00"/>
<path d="M175.487 138.058L161.617 144.928C161.617 144.928 149.732 101.099 148.942 97.7558C148.59 96.2662 147.507 95.7274 146.415 95.5886C148.337 95.4127 149.736 95.4004 149.736 95.4004C151.581 95.4003 153.38 95.9801 154.879 97.0582C156.379 98.1364 157.504 99.6588 158.096 101.411C160.745 109.251 165.622 123.699 170.562 138.42C171.854 137.901 173.391 137.306 175.089 136.694L175.487 138.058Z" fill="#F1A34F"/>
<path d="M147.727 140.432C147.727 140.432 192.549 136.452 198.075 141.759C200.644 144.223 202.082 155.383 202.889 166.634C203.894 180.666 192.558 192.674 178.61 192.473L130.019 192.495L147.727 140.432Z" fill="#DF812F"/>
<path d="M130.95 86.1907C129.667 85.9017 128.335 86.2355 127.435 86.5704C127.597 86.2534 128.034 86.0227 128.034 86.0227C127.44 86.1123 126.343 87.0665 126.343 87.0665C117.505 86.4326 119.817 98.4905 120.81 101.154C121.803 103.817 122.772 106.933 119.565 110.576C113.256 117.744 122.357 124.095 122.357 124.095C122.429 124.113 127.821 129.068 127.821 129.068C126.954 126.94 133.516 112.277 137.725 107.2C138.43 104.916 137.868 101.435 137.822 101.162C138.407 103.879 138.409 105.504 138.259 106.464C141.459 100.985 134.352 86.9545 130.95 86.1907Z" fill="#B5453C"/>
<path d="M164.844 107.237C164.976 107.038 166.094 103.608 167.279 103.674C168.464 103.74 170.305 103.938 170.765 103.806C171.225 103.674 172.775 102.505 173.034 102.784C173.692 103.477 172.212 105.621 171.159 105.951C170.106 106.281 168.393 105.785 168.002 106.176C167.612 106.567 167.673 107.99 167.673 107.99L164.844 107.237Z" fill="#FFB27D"/>
<path d="M196.154 183.174C196.025 184.574 197.968 184.914 200.218 185.026C202.468 185.138 201.788 185.601 204.873 186.161C207.957 186.721 209.193 185.874 209.416 185.456C209.615 185.086 208.181 184.506 206.652 183.85C206.46 183.769 206.267 183.685 206.075 183.599C204.355 182.841 203.395 181.294 202.05 179.86C200.78 178.501 199.574 174.148 199.574 174.148L195.383 173.252C195.383 173.252 196.56 177.172 196.969 178.838C197.209 179.822 196.857 180.92 196.54 181.757C196.369 182.215 196.198 182.681 196.154 183.174Z" fill="#FFB27D"/>
<path d="M200.218 185.024C202.468 185.136 201.788 185.599 204.873 186.159C207.957 186.719 209.193 185.872 209.416 185.454C209.615 185.083 208.181 184.503 206.653 183.848L206.629 183.874C205.105 184.315 203.491 184.335 201.957 183.93C199.917 183.37 197.944 182.151 196.539 181.756C196.369 182.211 196.198 182.676 196.154 183.17C196.024 184.576 197.968 184.912 200.218 185.024Z" fill="#C65447"/>
<path d="M154.418 133.327C154.418 133.327 182.268 131.225 187.511 134.543C192.753 137.862 201.163 176.52 201.163 176.52C201.163 176.52 200.644 176.938 199.488 177.063C198.41 177.175 196.036 176.544 196.036 176.544C196.036 176.544 183.952 159.247 183.101 154.89C182.25 150.534 182.458 146.645 180.519 146.541C178.581 146.437 154.418 149.488 150.763 143.03C147.108 136.572 150.13 130.179 150.13 130.179L154.418 133.327Z" fill="#AA413E"/>
<path d="M167.625 111.383C165.727 116.191 161.158 124.029 159.977 124.326C158.981 124.575 154.112 123.46 150.15 122.106C147.834 121.313 145.833 120.438 145.105 119.707C143.132 117.728 136.635 106.099 136.635 106.099C136.635 106.099 142.737 105.324 145.631 107.038C148.526 108.753 155.498 116.67 156.551 116.407C157.604 116.144 162.603 107.303 164.577 106.511C164.577 106.511 167.603 105.851 168.392 107.967C168.595 108.493 168.262 109.767 167.625 111.383Z" fill="#699DEE"/>
<path d="M185.497 187.661C185.369 189.061 187.312 189.401 189.562 189.513C191.812 189.625 191.132 190.088 194.216 190.648C197.3 191.208 198.537 190.362 198.76 189.943C198.959 189.572 197.525 188.992 195.996 188.337C195.804 188.255 195.611 188.171 195.419 188.086C193.699 187.328 192.739 185.78 191.393 184.346C190.124 182.988 188.918 178.634 188.918 178.634L184.727 177.738C184.727 177.738 185.904 181.658 186.312 183.325C186.553 184.308 186.201 185.407 185.884 186.244C185.713 186.704 185.542 187.168 185.497 187.661Z" fill="#FFB27D"/>
<path d="M189.562 189.513C191.812 189.625 191.132 190.088 194.216 190.648C197.3 191.208 198.536 190.362 198.76 189.943C198.959 189.572 197.525 188.992 195.996 188.337L195.973 188.363C194.449 188.804 192.835 188.823 191.302 188.419C189.261 187.859 187.288 186.64 185.884 186.245C185.714 186.7 185.543 187.166 185.498 187.659C185.367 189.056 187.311 189.401 189.562 189.513Z" fill="#C65447"/>
<path d="M167.625 111.383C165.727 116.191 161.158 124.029 159.977 124.326C158.981 124.575 154.112 123.46 150.15 122.106C148.512 120.705 147.507 119.493 147.343 119.246C147.474 119.296 156.696 122.802 158.524 122.016C160.187 121.304 164.879 113.273 167.625 111.383Z" fill="#4A75CB"/>
<path d="M137.462 107.466C137.492 107.466 135.331 109.594 133.24 109.655C131.272 109.714 129.366 107.716 129.389 107.703C130.112 107.314 130.011 106.186 128.608 101.634L128.976 101.596L135.177 100.967C135.177 100.967 135.606 102.853 136.132 104.593C136.568 106.055 137.082 107.408 137.462 107.466Z" fill="#FFB27D"/>
<path d="M135.178 100.968C135.178 100.968 135.607 102.854 136.133 104.595C132.833 105.504 130.192 103.04 128.978 101.599L135.178 100.968Z" fill="#E2915A"/>
<path d="M148.963 135.057C148.963 135.057 173.703 136.232 178.814 139.753C183.925 143.273 190.826 182.231 190.826 182.231C190.826 182.231 190.291 182.627 189.129 182.708C188.047 182.783 185.699 182.055 185.699 182.055C185.699 182.055 174.295 164.304 173.614 159.913C172.932 155.521 173.291 151.648 171.358 151.468C169.425 151.287 145.163 153.393 141.766 146.797C138.369 140.202 148.963 135.057 148.963 135.057Z" fill="#C65447"/>
<path d="M128.179 101.144C128.179 101.144 125.637 98.952 124.518 96.7546C123.72 95.1865 122.689 88.779 129.12 87.7777C130.415 87.5704 131.739 87.6573 132.995 88.032C134.609 88.5281 137.135 89.8934 136.61 95.9201L136.601 97.9048L128.179 101.144Z" fill="#B5453C"/>
<path d="M149.101 137.169C148.884 137.169 148.578 137.155 148.221 137.128C146.775 137.016 144.47 136.707 143.664 136.466C136.852 134.427 130.316 131.91 127.531 123.07C127.175 121.925 126.894 120.758 126.691 119.576L127.753 115.517L129.824 106.949C129.824 106.949 132.371 108.314 134.737 107.788C135.949 107.517 136.635 106.1 136.635 106.1C136.635 106.1 149.447 111.13 153.788 121.556C158.13 131.982 159.621 130.397 160.935 132.644C162.249 134.891 156.425 137.125 149.101 137.169Z" fill="#699DEE"/>
<path d="M136.771 102.279C136.771 102.279 129.066 104.778 127.591 99.9443C126.116 95.1103 124.124 92.1759 128.975 90.375C133.826 88.574 135.354 90.1252 136.233 91.6182C137.112 93.1112 138.737 101.504 136.771 102.279Z" fill="#FFB27D"/>
<path d="M132.469 89.1766C132.469 89.1766 132.077 95.5002 129.08 97.3347C126.083 99.1693 124.406 98.728 124.406 98.728C124.406 98.728 126.295 95.9762 125.757 92.344C125.757 92.3485 130.048 86.9658 132.469 89.1766Z" fill="#B5453C"/>
<path d="M132.084 89.7983C132.084 89.7983 134.053 90.5823 134.813 91.6933C135.574 92.8043 136.519 95.2885 137.23 94.9771C137.23 94.9771 137.652 90.6315 135.194 88.9997C132.588 87.2693 132.084 89.7983 132.084 89.7983Z" fill="#B5453C"/>
<path d="M148.221 137.127C146.775 137.015 144.47 136.706 143.664 136.465C136.852 134.426 130.316 131.909 127.531 123.069C127.521 123.004 127.509 122.939 127.497 122.874L128.441 122.128C129.39 121.38 130.521 120.901 131.717 120.74C132.913 120.579 134.13 120.742 135.242 121.213C140.619 123.491 148.005 127.62 148.221 137.127Z" fill="#4A75CB"/>
<path d="M129.825 106.948C129.825 106.948 121.867 108.147 120.556 113.155C119.246 118.162 118.072 134.524 119.256 135.817C120.439 137.109 123.977 135.611 124.766 134.964C125.556 134.318 129.634 117.678 129.634 117.678C129.634 117.678 131.625 110.158 129.825 106.948Z" fill="#699DEE"/>
<path d="M141.938 129.944C141.938 129.944 146.517 129.055 147.032 129.277C147.546 129.499 150.427 132.091 150.133 132.609C149.838 133.128 148.656 133.497 147.328 133.057C145.999 132.617 143.12 132.385 142.603 131.724C142.086 131.064 141.938 129.944 141.938 129.944Z" fill="#FFB27D"/>
<path d="M143.169 129.302C143.169 129.302 125.302 129.006 121.023 131.82C121.023 131.82 118.513 134.411 119.251 135.818C119.989 137.225 122.277 137.003 123.311 136.929C124.345 136.855 142.431 132.709 142.431 132.709C142.431 132.709 144.497 131.152 143.169 129.302Z" fill="#699DEE"/>
<path d="M127.963 134.266C127.963 134.266 148.292 127.932 153.399 133.958C157.872 139.236 170.002 160.13 170.641 172.497C171.262 184.513 159.6 192.414 147.603 192.414H126.295L127.963 134.266Z" fill="#F1A34F"/>
<path d="M158.538 172.497C157.899 160.13 149.249 140.425 146.106 135.485C141.52 128.279 121.732 135.201 113.046 138.686C108.106 123.966 103.228 109.515 100.58 101.678C99.9887 99.9251 98.8638 98.4022 97.3641 97.3239C95.8643 96.2456 94.0652 95.6662 92.2199 95.6671C92.2199 95.6671 78.0941 93.5739 75.9076 112.448C68.9106 172.868 74.533 192.351 99.6323 192.501C102.78 192.52 108.933 192.464 114.191 192.405V192.414H135.499C147.496 192.416 159.157 184.513 158.538 172.497Z" fill="#F1A34F"/>
<path d="M158.537 172.458C157.898 160.055 149.249 140.292 146.105 135.339C142.196 129.186 127.282 133.3 117.573 136.817C115.875 137.431 114.334 138.028 113.046 138.548C108.105 123.786 103.228 109.292 100.58 101.432C99.9904 99.6761 98.8665 98.1502 97.3667 97.0689C95.867 95.9876 94.0668 95.4052 92.2198 95.4038C92.2198 95.4038 90.8217 95.4172 88.8988 95.5931C85.8023 95.8764 81.3501 96.5832 79.2162 98.3393C77.7645 99.5299 76.774 104.757 75.9109 112.235C73.8707 129.901 72.9037 144.079 73.1784 155.303C73.3191 161.059 73.787 166.038 74.6055 170.311C75.1783 173.305 75.9209 175.955 76.8455 178.283C80.8521 188.382 88.2355 192.45 99.6344 192.519C100.959 192.527 102.817 192.519 104.916 192.509C107.804 192.491 111.148 192.456 114.192 192.422V192.431H135.5C147.496 192.433 159.158 184.509 158.537 172.458Z" fill="#D16E24"/>
<path d="M112.811 137.722L103.18 141.516C100.369 131.144 92.0835 100.524 91.4291 97.7581C91.0785 96.2685 89.9942 95.7297 88.9021 95.592C90.8239 95.4162 92.2231 95.4027 92.2231 95.4027C94.0681 95.4028 95.8668 95.9826 97.3663 97.0608C98.8659 98.1389 99.991 99.6612 100.584 101.414C103.186 109.126 107.951 123.246 112.811 137.722Z" fill="#F1A34F"/>
<path opacity="0.4" d="M119.355 147.565C117.853 143.049 108.492 144.46 108.492 144.46C108.492 144.46 102.136 152.364 100.287 152.552C98.4376 152.74 104.101 144.936 104.101 144.936C100.519 144.654 91.3881 148.229 91.3881 148.229C91.3881 148.229 91.9665 157.45 90.1173 157.263C88.2681 157.076 90.1173 149.077 90.1173 149.077C86.6557 149.923 83.4173 153.22 83.4173 153.22C79.3728 158.583 88.0403 162.536 88.0403 162.536C88.0403 162.536 88.152 165.734 85.7288 169.403C85.7288 169.403 82.6781 173.176 83.6563 178.054H80.9763C81.4911 174.543 79.337 171.88 79.337 171.88C77.4968 169.095 77.585 166.668 77.585 166.668C77.585 166.668 84.1588 163.67 81.0913 159.602C81.0913 159.602 78.6346 157.102 76.006 156.466C76.006 156.466 77.4085 162.532 76.006 162.677C74.6035 162.821 75.0412 155.824 75.0412 155.824C75.0412 155.824 74.2897 155.53 73.1831 155.142C73.3238 160.882 73.7917 165.846 74.6102 170.11C75.4231 169.783 76.0473 169.355 76.3555 168.815C76.408 168.721 76.4594 168.633 76.5085 168.548C76.4708 168.644 76.4192 168.734 76.3555 168.815C76.9853 169.114 77.9311 170.544 78.5889 171.639C78.6827 171.826 78.8312 172.087 79.0489 172.432C79.1383 172.592 79.2108 172.722 79.2589 172.814C80.0171 174.356 80.0405 176.603 79.9624 178.059H70.2139V178.482H70.7811C70.9888 184.104 75.3204 188.881 81.3962 190.879H72.627C71.469 190.879 70.531 191.643 70.531 192.585H104.957C104.957 192.47 104.942 192.354 104.914 192.242C104.72 191.465 103.875 190.879 102.862 190.879H94.1005C100.176 188.881 104.506 184.104 104.716 178.482H105.11V178.059H87.013C87.4317 177.312 87.9421 176.58 88.5406 176.043L88.8142 175.819C89.1101 175.595 89.3167 175.428 89.4574 175.302C90.3675 174.59 91.6282 173.681 92.2345 173.593C92.213 173.512 92.2047 173.428 92.21 173.344C92.2178 173.424 92.2267 173.506 92.2345 173.593C92.4422 175.577 97.1713 177.311 100.079 177.667C102.987 178.023 102.089 177.05 101.084 175.606C100.079 174.162 96.91 173.517 96.1864 172.852C95.4628 172.187 96.9591 172.18 98.7123 172.837C100.465 173.495 100.704 175.227 103.514 176.323C106.324 177.418 110.557 173.621 110.557 173.621C108.317 173.527 105.116 171.547 105.233 170.941C105.349 170.335 110.663 171.986 111.573 172.061C112.483 172.136 114.549 171.221 114.868 168.24C115.188 165.258 109.189 164.432 109.189 164.432C109.189 164.432 107.805 165.269 106.242 166.112C105.934 165.786 105.432 165.425 104.847 165.023C105.363 164.651 105.828 164.332 106.116 164.135C106.745 164.273 107.384 164.367 108.026 164.416C112.879 164.792 116.578 157.36 116.578 157.36C113.228 158.207 107.217 156.701 106.986 155.761C106.755 154.82 115.653 154.914 117.036 154.631C118.418 154.347 120.858 152.08 119.355 147.565ZM89.6517 165.347C89.568 165.24 89.5003 165.121 89.4507 164.994C89.5166 165.107 89.5836 165.222 89.6539 165.347H89.6517ZM88.7807 175.306C87.6969 176.017 86.7758 176.951 86.0783 178.045H84.9315C84.7897 176.177 84.7339 172.842 85.8249 170.619C85.8896 170.499 85.9823 170.328 86.1007 170.119C86.2458 169.888 86.3664 169.688 86.4681 169.513C86.5697 169.338 86.6467 169.194 86.7093 169.071C87.5747 167.626 88.822 165.743 89.6539 165.348C89.8868 165.732 90.1981 166.061 90.5673 166.316C88.9884 168.71 92.0279 171.597 92.0279 171.597C92.0279 171.597 91.2318 173.538 88.7829 175.305L88.7807 175.306ZM101.546 163.458C99.0607 162.898 96.0636 163.005 94.9681 162.525C93.4651 161.866 95.6616 161.207 98.6665 161.396C100.689 161.523 102.031 162.671 104.169 163.524C103.339 163.463 102.42 163.448 101.549 163.458H101.546Z" fill="#C44F00"/>
<path d="M86.6009 166.732C86.6009 166.732 82.4692 161.895 86.3463 158.823C86.3463 158.823 89.1793 157.102 91.4897 157.242C91.4897 157.242 88.2167 162.748 89.2753 163.29C90.3339 163.833 92.4824 156.892 92.4824 156.892C92.4824 156.892 98.93 156.265 101.004 157.265C101.004 157.265 95.4918 161.789 96.6487 162.058C97.8055 162.328 103.763 157.888 103.763 157.888C103.763 157.888 109.764 158.911 109.443 162.584C109.123 166.256 107.056 167.388 106.147 167.288C105.238 167.187 99.9227 165.16 99.8066 165.901C99.6905 166.643 102.891 169.089 105.131 169.203C105.131 169.203 100.9 173.882 98.0892 172.532C95.2785 171.181 95.0373 169.04 93.2875 168.237C91.5377 167.434 90.0391 167.437 90.7627 168.255C91.4863 169.074 94.6588 169.87 95.6604 171.649C96.6621 173.428 97.5587 174.626 94.6554 174.187C91.7521 173.748 87.0174 171.611 86.8108 169.168L86.6009 166.732Z" fill="#82B378"/>
<path d="M106.499 162.687C106.499 162.687 90.1954 162.057 86.6009 166.732C86.6009 166.732 85.8047 169.123 83.3558 171.301C83.3558 171.301 79.8573 173.896 79.615 178.532L80.2504 178.59C80.2504 178.59 81.2554 174.271 83.0856 172.229C83.1571 172.155 83.2598 172.049 83.3882 171.92C83.6853 171.644 83.8918 171.438 84.0325 171.284C84.9426 170.406 86.2033 169.286 86.8108 169.177C86.8086 169.176 85.2285 163.385 106.499 162.687Z" fill="#82B378"/>
<path d="M72.1489 160.649C72.1489 160.649 78.7239 156.953 75.6553 151.944C75.6553 151.944 73.1986 148.866 70.57 148.074C70.57 148.074 71.9725 155.549 70.57 155.725C69.1674 155.901 69.6052 147.283 69.6052 147.283C69.6052 147.283 62.6818 143.941 59.9616 144.206C59.9616 144.206 64.2574 151.503 62.8549 151.329C61.4524 151.154 56.6306 143.766 56.6306 143.766C56.6306 143.766 49.5286 142.447 48.3896 146.668C47.2506 150.89 49.0908 153 50.1428 153.263C51.1947 153.526 57.946 153.439 57.7707 154.318C57.5954 155.197 53.036 156.604 50.4934 155.813C50.4934 155.813 53.2985 162.757 56.9812 162.408C60.664 162.058 61.803 159.77 64.0832 159.594C66.3635 159.419 68.0284 160.035 66.8883 160.649C65.7482 161.264 61.8912 160.851 60.0498 162.421C58.2084 163.991 56.7188 164.958 60.138 165.661C63.5573 166.365 69.6945 165.926 70.9217 163.287L72.1489 160.649Z" fill="#A8D29F"/>
<path d="M73.9021 167.068C72.0607 163.639 72.1489 160.648 72.1489 160.648C70.0451 153.965 51.6335 147.986 51.6335 147.986C75.0422 157.483 70.9217 163.286 70.9217 163.286C71.5526 163.654 72.4985 165.414 73.1551 166.766C73.2489 166.995 73.3963 167.313 73.6162 167.746C73.7056 167.941 73.7771 168.101 73.8262 168.212C75.0311 171.236 74.3935 176.459 74.3935 176.459L75.1237 176.656C76.7418 171.392 73.9021 167.068 73.9021 167.068Z" fill="#82B378"/>
<path d="M82.6097 155.556C82.6097 155.556 73.9422 150.687 77.9867 144.08C77.9867 144.08 81.225 140.024 84.6867 138.98C84.6867 138.98 82.8375 148.836 84.6867 149.06C86.5359 149.284 85.9575 137.931 85.9575 137.931C85.9575 137.931 95.0873 133.526 98.6696 133.875C98.6696 133.875 93.007 143.496 94.8562 143.264C96.7054 143.032 103.061 133.296 103.061 133.296C103.061 133.296 112.422 131.557 113.925 137.12C115.428 142.684 113.001 145.467 111.614 145.814C110.227 146.161 101.328 146.046 101.564 147.205C101.8 148.364 107.805 150.219 111.156 149.175C111.156 149.175 107.458 158.332 102.604 157.868C97.7495 157.405 96.2475 154.396 93.2426 154.159C90.2376 153.922 88.0423 154.738 89.5442 155.55C91.0461 156.362 96.1325 155.816 98.559 157.885C100.986 159.955 102.951 161.23 98.4474 162.157C93.9439 163.084 85.8503 162.505 84.2322 159.028L82.6097 155.556Z" fill="#A8D29F"/>
<path d="M109.656 138.864C109.656 138.864 85.3869 146.747 82.6131 155.552C82.6131 155.552 82.7247 159.494 80.3016 164.014C80.3016 164.014 76.5585 169.715 78.6924 176.653L79.655 176.393C79.655 176.393 78.813 169.509 80.4021 165.521C80.4668 165.375 80.5606 165.164 80.679 164.907C80.9693 164.338 81.1636 163.919 81.2876 163.615C82.153 161.835 83.3992 159.515 84.2311 159.023C84.2278 159.033 78.7963 151.383 109.656 138.864Z" fill="#82B378"/>
<path d="M65.3396 174.675C65.3396 179.192 67.1284 183.523 70.3124 186.717C73.4965 189.91 77.815 191.704 82.318 191.704C86.8209 191.704 91.1394 189.91 94.3235 186.717C97.5075 183.523 99.2963 179.192 99.2963 174.675H65.3396Z" fill="#699DEE"/>
<path d="M86.4959 191.575C84.107 191.873 81.6822 191.658 79.3822 190.945C77.0823 190.233 74.9596 189.038 73.1549 187.44C71.3501 185.842 69.9046 183.877 68.9139 181.677C67.9233 179.476 67.4102 177.09 67.4087 174.675H71.6263C71.6263 178.826 73.1373 182.833 75.8753 185.945C78.6133 189.057 82.39 191.059 86.4959 191.575Z" fill="#A1C7FF"/>
<path d="M97.4358 190.471H67.1998C66.9244 190.47 66.6516 190.524 66.3971 190.63C66.1425 190.735 65.9112 190.89 65.7163 191.085C65.5214 191.28 65.3668 191.512 65.2613 191.767C65.1559 192.022 65.1016 192.296 65.1016 192.572H99.5306C99.5306 192.014 99.3099 191.48 98.9171 191.086C98.5242 190.692 97.9914 190.471 97.4358 190.471Z" fill="#4A75CB"/>
<path d="M99.6827 174.675H64.7812V175.197H99.6827V174.675Z" fill="#4A75CB"/>
<path d="M287.056 141.765V158.117C287.056 160.99 286.247 163.315 285.246 163.315H253.317C252.312 163.315 251.507 160.991 251.507 158.117V141.765C251.507 138.892 254.329 136.231 262.606 136.323L285.246 136.567C286.247 136.567 287.056 138.892 287.056 141.765Z" fill="#F1A34F"/>
<path d="M291.286 141.765V158.117C291.286 160.99 290.476 163.315 289.476 163.315H257.547C256.542 163.315 255.737 160.991 255.737 158.117V141.765C255.737 138.892 258.743 136.138 263.34 136.231L289.47 136.567C290.477 136.567 291.286 138.892 291.286 141.765Z" fill="#E78B37"/>
<path d="M283.41 122.152C283.844 121.187 283.192 80.9357 292.979 81.415C302.765 81.8944 321.032 82.3793 321.032 82.3793C321.032 82.3793 329.295 83.1029 324.293 102.869C319.292 122.634 320.379 153.97 320.379 153.97H284.283L283.41 122.152Z" fill="#F1A34F"/>
<path d="M317.333 102.871C316.73 105.232 316.23 107.755 315.788 110.368C314.022 120.95 313.477 133.007 313.346 141.758C313.243 148.99 313.419 153.966 313.419 153.966H277.326L276.459 122.148C276.885 121.19 276.235 80.9323 286.023 81.4173C291.026 81.6682 298.251 81.9045 304.106 82.096C304.842 82.1106 305.558 82.1408 306.255 82.1554C310.786 82.2887 314.083 82.3794 314.083 82.3794C314.083 82.3794 322.336 83.0951 317.333 102.871Z" fill="#E78B37"/>
<path d="M294.662 183.619V162.387C294.658 161.949 294.483 161.531 294.175 161.222C293.867 160.913 293.45 160.737 293.014 160.733H293C292.713 160.735 292.433 160.816 292.19 160.97C291.937 161.11 291.726 161.315 291.579 161.564C291.431 161.813 291.353 162.097 291.351 162.387V183.649L291.161 183.681C288.85 184.048 286.692 185.07 284.94 186.625C283.188 188.181 281.916 190.206 281.272 192.462H304.918C304.255 190.145 302.931 188.073 301.109 186.502C299.287 184.931 297.046 183.929 294.662 183.619Z" fill="#D16E24"/>
<path opacity="0.4" d="M315.759 109.733C314.876 96.1565 307.8 84.5421 306.254 82.1509L290.746 80.6121C290.746 80.6121 278.791 88.5439 281.734 119.074C283.251 134.817 289.723 124.506 295.637 110.825L294.424 140.473C294.424 140.473 308.858 141.462 313.346 141.756C313.479 133.005 314.023 120.948 315.788 110.366C315.793 110.161 315.774 109.94 315.759 109.733Z" fill="#C44F00"/>
<path d="M292.191 160.97C291.939 161.11 291.728 161.315 291.58 161.564C291.433 161.813 291.354 162.097 291.353 162.387V188.404C291.35 188.695 291.427 188.98 291.575 189.23C291.723 189.48 291.936 189.684 292.191 189.821C292.44 189.678 292.648 189.472 292.792 189.223C292.937 188.974 293.014 188.692 293.016 188.404V162.387C293.014 162.099 292.937 161.816 292.792 161.568C292.648 161.319 292.44 161.113 292.191 160.97Z" fill="#F1A34F"/>
<path d="M291.161 183.68C288.85 184.047 286.692 185.068 284.94 186.624C283.188 188.18 281.916 190.205 281.272 192.461H301.053C300.412 190.203 299.139 188.176 297.386 186.62C295.633 185.064 293.473 184.044 291.161 183.68Z" fill="#F1A34F"/>
<path d="M320.898 155.792L320.081 160.496C320.081 161.504 320.088 163.323 319.088 163.323H262.881C262.644 163.322 262.409 163.275 262.189 163.183C261.97 163.091 261.771 162.957 261.603 162.788C261.436 162.619 261.303 162.419 261.213 162.199C261.122 161.978 261.076 161.742 261.077 161.504V155.792C261.077 155.553 261.123 155.317 261.214 155.097C261.305 154.877 261.438 154.676 261.607 154.508C261.775 154.339 261.974 154.206 262.194 154.114C262.414 154.023 262.649 153.976 262.887 153.976H319.088C319.325 153.976 319.561 154.023 319.78 154.114C320 154.206 320.2 154.339 320.368 154.508C320.536 154.676 320.669 154.877 320.76 155.097C320.851 155.317 320.898 155.553 320.898 155.792Z" fill="#F1A34F"/>
<path d="M253.288 189.041C253.391 189.543 253.493 190.06 253.464 190.592C253.424 190.737 253.354 190.874 253.261 190.993C253.167 191.112 253.051 191.211 252.919 191.285L252.655 191.787C252.375 191.92 251.698 192.023 250.83 192.111L250.816 191.698C250.698 191.696 250.58 191.7 250.463 191.713V191.698C249.139 191.689 247.825 191.935 246.593 192.422C246.579 192.422 246.564 192.436 246.549 192.436L245.739 192.481H241.942C240.118 192.216 239.396 191.473 239.262 191.109C239.262 191.006 240.63 190.325 241.764 190.002C241.793 189.995 241.822 189.99 241.852 189.988C242.014 189.928 242.323 189.811 242.397 189.796C242.602 189.722 242.844 189.663 243.045 189.605C244.943 189.045 246.223 187.775 247.723 186.372C249.445 184.764 251.785 177.592 251.475 177.458L255.345 177.96C255.345 177.96 252.24 184.188 252.491 186.122C252.593 186.977 252.903 187.701 253.108 188.439C253.123 188.468 253.123 188.513 253.137 188.542C253.178 188.643 253.212 188.747 253.24 188.852C253.26 188.924 253.273 188.983 253.288 189.041Z" fill="#EF9A60"/>
<path d="M301.986 135.184L285.348 134.502C285.348 134.502 260.035 136.142 257.889 139.831L248.344 184.611C248.344 184.611 248.873 185.325 250.665 185.633C251.613 185.797 253.68 185.325 253.68 185.325C253.68 185.325 266.042 169.472 267.631 159.517C268.958 151.199 269.484 150.333 274.03 150.502C278.576 150.671 292.529 151.777 299.155 150.489C305.781 149.201 301.986 135.184 301.986 135.184Z" fill="#233862"/>
<path d="M253.538 190.176C253.545 190.318 253.52 190.459 253.464 190.589C253.424 190.735 253.355 190.872 253.261 190.991C253.168 191.11 253.051 191.209 252.919 191.283C252.894 191.307 252.864 191.327 252.831 191.342H252.813C252.799 191.356 252.784 191.356 252.77 191.371C252.284 191.666 251.636 191.666 250.812 191.696H250.459C249.135 191.687 247.822 191.932 246.59 192.419C246.576 192.419 246.561 192.434 246.545 192.434C246.502 192.448 246.472 192.463 246.428 192.479H239.998C239.115 192.125 238.939 191.564 238.85 191.359C238.777 191.196 238.983 191.023 239.38 190.828C239.417 190.814 239.452 190.794 239.482 190.768C240.041 190.518 240.881 190.252 241.778 189.956C241.793 189.971 241.823 189.971 241.852 189.986C242.455 190.192 244.56 190.856 247.031 190.384C249.091 189.986 251.136 189.011 252.711 188.54C252.843 188.511 252.975 188.466 253.108 188.437C253.137 188.422 253.167 188.422 253.196 188.407C253.223 188.469 253.242 188.533 253.256 188.599C253.424 189.108 253.519 189.639 253.538 190.176Z" fill="#365DA4"/>
<path d="M253.008 191.122L252.919 191.285L252.655 191.787L252.287 192.48H250.477V192.111L250.463 191.713V191.536L252.905 191.137L253.008 191.122Z" fill="#365DA4"/>
<path d="M258.928 189.041C259.031 189.543 259.134 190.06 259.105 190.592C259.064 190.737 258.995 190.874 258.902 190.993C258.809 191.112 258.693 191.211 258.561 191.285L258.296 191.787C258.017 191.92 257.34 192.023 256.472 192.111L256.457 191.698C256.339 191.696 256.221 191.7 256.104 191.713V191.698C254.78 191.689 253.467 191.935 252.235 192.422C252.22 192.422 252.206 192.436 252.19 192.436L251.381 192.481H247.584C245.759 192.216 245.039 191.473 244.904 191.109C244.904 191.006 246.272 190.325 247.405 190.002C247.434 189.995 247.464 189.99 247.494 189.988C247.656 189.928 247.965 189.811 248.039 189.796C248.244 189.722 248.485 189.663 248.686 189.605C250.585 189.045 251.864 187.775 253.365 186.372C255.087 184.764 257.426 177.592 257.117 177.458L260.986 177.96C260.986 177.96 257.882 184.188 258.132 186.122C258.235 186.977 258.544 187.701 258.75 188.439C258.764 188.468 258.764 188.513 258.779 188.542C258.82 188.643 258.854 188.747 258.881 188.852C258.898 188.924 258.914 188.983 258.928 189.041Z" fill="#FFB27D"/>
<path d="M291.889 93.7642L290.594 98.9161L283.792 125.872C283.533 126.279 281.366 127.138 278.97 127.944C276.117 128.901 272.931 129.802 272.328 129.75C271.225 129.66 270.615 127.348 270.929 126.697C271.132 126.266 274.769 124.331 277.613 122.596C279.201 121.629 280.539 120.725 280.91 120.187C281.58 119.189 283.24 110.011 284.595 103.294C285.286 99.848 285.902 97.048 286.26 96.3144C287.165 94.3981 290.693 93.8806 291.648 93.7821C291.728 93.7716 291.808 93.7656 291.889 93.7642Z" fill="#466AA5"/>
<path d="M306.388 135.197L289.749 134.515C289.749 134.515 264.437 136.155 262.289 139.845L253.468 185.51C253.468 185.51 255.007 186.038 255.973 186.109C257.513 186.221 258.571 185.717 258.571 185.717C258.571 185.717 270.438 169.486 272.027 159.533C273.354 151.215 273.88 150.349 278.426 150.518C282.972 150.687 296.925 151.792 303.551 150.504C310.177 149.216 306.388 135.197 306.388 135.197Z" fill="#2B478B"/>
<path d="M259.178 190.176C259.185 190.318 259.16 190.459 259.105 190.589C259.064 190.735 258.995 190.871 258.902 190.99C258.808 191.109 258.693 191.209 258.561 191.283C258.535 191.307 258.505 191.327 258.472 191.342H258.458C258.443 191.356 258.429 191.356 258.414 191.371C257.929 191.666 257.281 191.666 256.457 191.696H256.104C254.78 191.687 253.467 191.932 252.235 192.419C252.22 192.419 252.206 192.434 252.19 192.434C252.145 192.448 252.116 192.463 252.073 192.479H245.643C244.76 192.125 244.583 191.564 244.495 191.359C244.422 191.196 244.628 191.023 245.025 190.828C245.062 190.814 245.096 190.794 245.127 190.768C245.686 190.518 246.525 190.252 247.422 189.956C247.437 189.971 247.467 189.971 247.496 189.986C248.099 190.192 250.204 190.856 252.675 190.384C254.735 189.986 256.78 189.011 258.354 188.54C258.487 188.511 258.619 188.466 258.752 188.437C258.781 188.422 258.811 188.422 258.84 188.407C258.866 188.469 258.886 188.533 258.899 188.599C259.067 189.109 259.161 189.64 259.178 190.176Z" fill="#466AA5"/>
<path d="M258.648 191.122L258.56 191.285L258.295 191.787L257.928 192.48H256.118V192.111L256.103 191.713V191.536L258.545 191.137L258.648 191.122Z" fill="#466AA5"/>
<path d="M300.213 86.5166C308.195 85.9085 309.757 69.478 300.26 71.4784C300.26 71.4784 298.929 70.6059 298.272 70.5969C298.272 70.5969 298.78 70.7828 299.002 71.102C297.976 70.8724 296.384 70.4995 295.132 71.214C282.293 78.5187 297.12 86.7518 300.213 86.5166Z" fill="#163560"/>
<path d="M291.208 95.2649C291.175 95.2739 293.833 97.2563 296.112 97.0121C298.256 96.7881 300.028 94.3331 300.002 94.3241C299.161 94.0094 299.108 92.7707 299.953 87.6243L299.548 87.6377L292.728 87.8751C292.728 87.8751 292.541 89.9852 292.227 91.9508C291.965 93.6006 291.613 95.1496 291.208 95.2649Z" fill="#FFB27D"/>
<path d="M290.594 98.9205L283.792 125.877C283.533 126.283 281.367 127.142 278.97 127.949C278.749 127.395 278.556 126.83 278.394 126.255C278.041 125.058 277.78 123.836 277.612 122.6C279.2 121.632 280.538 120.728 280.909 120.191C281.579 119.193 283.239 110.014 284.594 103.298C287.643 100.295 290.52 98.8175 290.52 98.8175L290.594 98.9205Z" fill="#2B478B"/>
<path d="M292.728 87.8742C292.728 87.8742 292.541 89.9843 292.227 91.9498C295.942 92.4471 298.444 89.3806 299.548 87.6356L292.728 87.8742Z" fill="#EF9A60"/>
<path d="M300.346 87.0241C300.346 87.0241 302.781 84.2678 303.671 81.7175C304.306 79.8964 304.477 72.7922 297.353 72.6612C295.919 72.6284 294.496 72.9189 293.189 73.5113C291.514 74.2897 288.972 76.1455 290.432 82.6068L290.734 84.7583L300.346 87.0241Z" fill="#163560"/>
<path d="M291.192 89.534C291.192 89.534 299.918 91.102 300.808 85.6364C301.698 80.1707 303.423 76.6931 297.889 75.4611C292.355 74.2291 290.931 76.1331 290.192 77.8893C289.452 79.6455 288.945 88.9852 291.192 89.534Z" fill="#FFB27D"/>
<path d="M293.926 74.6793C293.926 74.6793 295.285 81.4822 298.808 83.0278C302.331 84.5734 304.085 83.8454 304.085 83.8454C304.085 83.8454 301.628 81.1406 301.677 77.1254C301.676 77.1221 296.226 71.9208 293.926 74.6793Z" fill="#163560"/>
<path d="M294.435 75.2964C294.435 75.2964 292.415 76.4377 291.755 77.7604C291.095 79.0831 290.434 81.9145 289.617 81.6804C289.617 81.6804 288.517 77.028 290.944 74.8921C293.516 72.6264 294.435 75.2964 294.435 75.2964Z" fill="#163560"/>
<path d="M307.075 143.491C306.381 144.739 304.875 144.835 302.981 144.291C302.067 144.038 301.077 143.619 300.036 143.139C299.939 143.082 299.838 143.031 299.734 142.986C296.667 141.485 293.246 139.225 290.577 137.505C284.973 133.903 284.603 135.92 282.941 133.931C282.941 133.931 284.649 132.13 282.458 111.097C281.836 105.076 291.892 93.7642 291.892 93.7642C291.892 93.7642 291.959 97.4982 300 94.3242C300.285 94.2211 302.484 98.9733 304.402 104.713C304.716 105.632 305.014 106.562 305.296 107.504C306.636 111.953 307.626 116.6 307.358 119.83C307.314 120.525 307.178 121.212 306.954 121.872L306.882 122.04C304.117 128.688 309.057 139.897 307.075 143.491Z" fill="#466AA5"/>
<path d="M279.41 117.21L264.59 116.147L270.936 133.478L284.814 134.922L279.41 117.21Z" fill="#B64C41"/>
<path d="M279.278 117.397L264.458 116.334L270.804 133.665L284.682 135.11L279.278 117.397Z" fill="#D6716B"/>
<path d="M277.944 117.106C277.944 117.106 278.3 114.86 277.038 114.815C275.776 114.769 275.038 116.963 275.038 116.963L277.944 117.106Z" fill="#B2CBFD"/>
<path d="M275.572 119.139C275.925 120.737 277.963 123.351 277.84 124.673L268.368 124.55C268.368 124.55 268.43 123.935 266.406 119.569C265.574 117.777 266.559 114.529 267.411 114.456L277.034 114.81C277.034 114.81 274.885 116.025 275.572 119.139Z" fill="#D2E9FF"/>
<path d="M264.59 116.147L264.458 116.334L264.785 116.356L264.756 116.24L264.59 116.147Z" fill="#B64C41"/>
<path d="M284.682 135.11L284.814 134.922L284.563 134.728L284.682 135.11Z" fill="#B64C41"/>
<path d="M307.074 143.491C306.381 144.739 304.875 144.835 302.981 144.291C302.067 144.038 301.077 143.619 300.036 143.139C296.351 140.747 292.41 136.921 290.197 130.79C285.223 117.014 304.35 107.046 304.35 107.046L305.29 107.494C306.63 111.943 307.621 116.59 307.353 119.82C307.308 120.515 307.172 121.202 306.948 121.862L306.877 122.03C304.116 128.688 309.057 139.897 307.074 143.491Z" fill="#2B478B"/>
<path d="M290.807 121.147L290.207 120.72L284.456 128.842L285.056 129.269L290.807 121.147Z" fill="#D16E24"/>
<path d="M284.47 128.835L284.423 129.558L285.069 129.263L284.47 128.835Z" fill="#F1A34F"/>
<path d="M292.138 125.334C292.138 125.334 289.544 124.253 288.229 124.556C286.915 124.86 284.237 125.742 284.355 126.468C284.472 127.194 287.339 128.036 288.685 127.549C290.031 127.062 290.807 128.082 292.395 127.822C293.983 127.562 292.138 125.334 292.138 125.334Z" fill="#FFB27D"/>
<path d="M300.001 94.322C300.001 94.322 308.168 95.7131 309.187 97.8724C310.205 100.032 309.527 122.658 308.893 125.047C308.259 127.436 295.065 128.56 291.114 128.416C291.114 128.416 290.492 125.728 291.231 124.23C291.97 122.733 301.734 121.11 302.536 119.995C303.338 118.879 300.934 105.127 301.244 102.436C301.554 99.7462 300.001 94.322 300.001 94.322Z" fill="#466AA5"/>
<path d="M268 126.198C268 126.198 270.698 125.936 270.332 127.045C269.965 128.154 268.948 128.689 268.948 128.689C268.948 128.689 266.858 127.182 268 126.198Z" fill="#FFB27D"/>
<path d="M316.668 141.765V158.117C316.668 160.99 315.858 163.315 314.858 163.315H282.929C281.924 163.315 281.119 160.991 281.119 158.117V141.765C281.119 138.892 283.665 136.046 292.397 136.567H314.853C315.858 136.567 316.668 138.892 316.668 141.765Z" fill="#F1A34F"/>
<path d="M320.897 141.765V158.117C320.897 160.99 320.088 163.315 319.087 163.315H287.159C286.154 163.315 285.348 160.991 285.348 158.117V141.765C285.348 138.892 288.079 136.323 294.515 136.567L317.323 136.416C320.909 136.416 320.897 138.892 320.897 141.765Z" fill="#DF812F"/>
<path d="M354.484 148.997H312.971C312.496 148.998 312.039 149.188 311.703 149.526C311.367 149.863 311.177 150.321 311.176 150.798V151.443C311.177 151.92 311.367 152.378 311.703 152.715C312.039 153.053 312.496 153.243 312.971 153.244H332.117L333.191 186.206C327.897 186.372 323.523 189.006 322.37 192.495H345.085C343.942 189.032 339.627 186.416 334.389 186.211L335.34 153.244H354.484C354.959 153.243 355.415 153.053 355.752 152.715C356.088 152.378 356.278 151.92 356.279 151.443V150.798C356.278 150.321 356.088 149.863 355.752 149.526C355.415 149.188 354.959 148.998 354.484 148.997Z" fill="#4A75CB"/>
<path d="M331.118 145.534C330.854 145.37 330.337 145.434 329.967 145.513V144.972C329.967 144.854 329.959 144.736 329.944 144.619H324.353C324.337 144.736 324.33 144.854 324.329 144.972V146.073C324.329 146.647 324.503 147.208 324.828 147.68C325.154 148.153 325.615 148.515 326.151 148.717C326.687 148.92 327.272 148.954 327.827 148.814C328.383 148.675 328.883 148.369 329.26 147.937C329.26 147.937 330.59 147.609 331.008 147.112C331.425 146.615 331.562 145.808 331.118 145.534ZM330.824 146.551C330.683 146.917 330.049 147.111 329.735 147.19C329.862 146.895 329.938 146.58 329.958 146.26C330.151 145.994 330.456 145.84 330.68 145.88C330.882 145.917 331.002 146.088 330.824 146.551Z" fill="#699DEE"/>
<path d="M324.788 144.971V146.071C324.79 146.82 325.088 147.538 325.616 148.067C326.144 148.597 326.859 148.896 327.605 148.898C327.732 148.898 327.859 148.889 327.984 148.87C327.309 148.777 326.691 148.442 326.243 147.927C325.795 147.413 325.547 146.753 325.545 146.07V144.969C325.545 144.851 325.553 144.733 325.568 144.615H324.809C324.795 144.733 324.788 144.852 324.788 144.971Z" fill="#AFCDFB"/>
<path d="M328.297 148.652H325.996V148.997H328.297V148.652Z" fill="#699DEE"/>
<path d="M345.924 145.534C345.66 145.37 345.143 145.434 344.773 145.513V144.972C344.772 144.854 344.765 144.736 344.749 144.619H339.158C339.143 144.736 339.135 144.854 339.135 144.972V146.073C339.134 146.647 339.308 147.208 339.634 147.68C339.959 148.153 340.421 148.515 340.957 148.717C341.493 148.92 342.077 148.954 342.633 148.814C343.188 148.675 343.688 148.369 344.066 147.937C344.066 147.937 345.396 147.609 345.814 147.112C346.231 146.615 346.368 145.808 345.924 145.534ZM345.629 146.551C345.489 146.917 344.853 147.111 344.541 147.19C344.668 146.895 344.743 146.58 344.764 146.26C344.957 145.994 345.262 145.84 345.485 145.88C345.687 145.917 345.808 146.088 345.629 146.551Z" fill="#699DEE"/>
<path d="M339.594 144.971V146.071C339.597 146.82 339.894 147.538 340.422 148.067C340.95 148.597 341.665 148.896 342.412 148.898C342.538 148.898 342.665 148.889 342.79 148.87C342.115 148.777 341.497 148.442 341.049 147.927C340.601 147.413 340.353 146.753 340.351 146.07V144.969C340.352 144.851 340.359 144.733 340.375 144.615H339.617C339.602 144.733 339.594 144.852 339.594 144.971Z" fill="#AFCDFB"/>
<path d="M343.103 148.652H340.802V148.997H343.103V148.652Z" fill="#699DEE"/>
<path d="M362.01 192.48H30.954C30.7708 192.48 30.6223 192.629 30.6223 192.813V192.893C30.6223 193.077 30.7708 193.226 30.954 193.226H362.01C362.193 193.226 362.342 193.077 362.342 192.893V192.813C362.342 192.629 362.193 192.48 362.01 192.48Z" fill="#283250"/>
</svg>
